<svg viewBox="0 0 500 255" xmlns="http://www.w3.org/2000/svg"><g fill="#1a1a2c"><path d="M388.52 252.85c-1.55-.89-1.77-4.35-.44-5.68 1.25-1.25 39.75-1.25 41 0 1.26 1.25 1.11 3.98-.3 5.3-.95 1.04-3.83 1.19-20.05 1.19-11.5 0-19.47-.37-20.21-.81zM449.73 252.85c-1.62-.96-1.77-4.57-.14-5.9 1.47-1.18 8.04-1.18 9.51.07 1.47 1.25 1.4 3.91-.22 5.38-1.55 1.4-7.08 1.7-9.15.45zM41.96 252.11c-2.2-.81-3.17-3.17-2.06-5.16 1.25-2.36 8.19-2.73 10.77-.52 1.25 1.03 1.18 3.91-.15 5.02-1.48 1.18-6.2 1.62-8.56.66zM71.76 252.04c-2.5-1.26-2.36-5.53.22-6.5 1.03-.44 9.96-.73 19.91-.73 17.04 0 18.07.07 19.47 1.47 2.29 2.29 1.85 4.2-1.25 5.83-2.14 1.1-36.06 1.03-38.35-.07zM172.28 232.86c-.96-1.47-.88-3.69.44-18.66.96-10.84 1.85-17.33 2.44-17.92 1.18-1.25 7.74-.44 7.74.96 0 1.25-1.47 1.77-3.9 1.33-1.11-.22-2-.08-2 .22 0 .37-.66 7.6-1.47 16.08-.74 8.55-1.26 15.78-1.03 16.07.22.3 33.85.6 74.85.6h74.42v-3.18c0-2.95-1.77-24.11-3.7-43.66-.43-4.42-.95-9.73-1.1-11.8-.14-1.99-.51-5.82-.73-8.48-.67-7.6-3.99-44.18-4.5-49.04-.3-2.44-.81-4.87-1.26-5.31-.44-.67-3.02-.96-8.04-.96-6.78 0-7.44-.15-9.07-1.85a5.94 5.94 0 01-1.84-4.2c0-4.28-2.14-11.73-4.87-16.82-9.51-18.14-29.8-27.58-49.26-22.93-9.22 2.21-14.46 5.23-21.54 12.24-8.4 8.33-11.14 14.3-13.2 28.54-.66 4.5-1.77 5.02-9.66 5.02-7.67 0-9.52.59-10.1 3.1-.38 1.32-2 19.17-2.96 31.93-.14 2.06.08 2.21 2.66 2.58 3.76.52 3.54 1.77-.37 2-5.83.36-5.75.8-3.9-19.7 1.02-11.43 1.98-18.73 2.65-19.77 1.47-2.28 4.42-3.1 11.72-3.1 7 0 7.38-.21 7.38-4.27 0-3.83 2.43-11.73 5.38-17.48 5.83-11.14 16.6-19.84 29.43-23.53 5.09-1.54 15.2-1.99 20.57-1.03 20 3.61 36.66 21.24 38.87 41.16l.52 4.79 8.33.37c11.65.51 10.77-1.03 12.69 22.5.37 4.86 1.4 16 2.2 24.7.82 8.7 2 21.68 2.6 28.76.65 7.08 1.76 19.84 2.57 28.4.81 8.48 1.48 16.88 1.48 18.58 0 5.83 6.7 5.38-77.81 5.38h-75.6l-1.03-1.62zM55.02 227.1c-4.8-1.47-8.4-7.3-7.45-12.01a10.57 10.57 0 0119.54-3.32c4.8 7.82-3.24 18-12.1 15.34zm8.63-5.15c4.5-5.02 1.03-12.47-5.83-12.54-2.65 0-3.47.37-5.38 2.58-2.51 2.88-2.88 5.24-1.18 8.48 2.5 4.87 8.63 5.6 12.39 1.48zM336.45 220.54c-4.05-.51-5.3-1.47-5.3-4.27 0-3.62 1.76-3.91 22.63-3.91 18.44 0 19.47.07 20.88 1.47 1.84 1.85 1.91 3.84.07 5.46-1.18 1.1-3.54 1.33-17.85 1.48-9.07.14-18.29 0-20.43-.23zM390.22 220.47c-3.84-.88-5.1-4.42-2.44-6.86 1.85-1.7 10.62-1.77 12.25-.07 1.4 1.4 1.54 5.01.29 6.05-1.4 1.03-7.23 1.54-10.1.88zM99.71 218.55c-1.84-1.32-2.06-3.68-.44-5.82.88-1.26 1.99-1.48 6.12-1.48 3.17 0 5.46.37 6.2 1.03 1.54 1.26 1.62 4.8.07 6.27-1.55 1.63-9.66 1.63-11.95 0zM125.08 218.63c-1.77-1.85-1.47-5.31.6-6.64 1.54-1.03 4.5-1.18 21.08-.96l19.33.22 1.4 1.77a4.1 4.1 0 01-.22 5.6c-.37.45-8.63.82-20.8.97-17.78.22-20.36.07-21.39-.96z"/></g><g fill="#f90"><path d="M263.95 205.35c-5.16-3.46-10.84-4.05-18.58-1.77-4.13 1.18-5.9.44-6.27-2.58-.52-4.35 4.06-6.56 13.87-6.64 5.82-.07 7.6.22 10.69 1.63 7 3.24 9.66 7.6 6.12 10.03-2.21 1.54-2.73 1.47-5.82-.67zM227.15 181.6a4.86 4.86 0 01-2.95-4.27c0-3.76 5.53-5.46 7.67-2.44 1.63 2.29 1.48 3.32-.66 5.39-1.84 1.91-2.14 1.99-4.06 1.32zM275.1 181.6c-1.7-.59-2.96-2.5-2.96-4.64 0-2.5 1.25-3.69 4.06-3.69 2.95 0 4.05 1.18 4.05 4.13 0 1.7-.51 2.8-1.62 3.54-1.77 1.25-1.84 1.25-3.54.66z"/></g><g fill="#1a1a2c"><path d="M188.36 196.8c-.74-1.26 1.33-2.88 4.35-3.4 2.36-.36 2.66-.22 2.29.82-.44 1.18-3.91 3.39-5.39 3.39-.37 0-.96-.37-1.25-.81zM166.09 193.48c-1.4-.96-2.36-3.98-1.18-3.98.74 0 5.46 3.83 5.46 4.5 0 1.03-2.51.73-4.28-.52zM462.57 191.56c-3.25-1.62-3.1-7.08.3-8.63 3.46-1.55 7.66.89 7.66 4.35 0 3.54-4.5 5.98-7.96 4.28zM485.65 190.97a3.68 3.68 0 011.55-5.9c2.95-1.1 9.37-.88 11.2.44 2 1.33 2.15 4.06.3 5.68-2.06 1.92-11.28 1.77-13.05-.22zM359.76 190.9c-1.63-.89-1.85-5.98-.3-7.23.67-.59 12.4-.74 42.19-.66l41.15.22 1.18 2.06c.96 1.77.96 2.22 0 4.06l-1.18 1.99-40.86.15c-26.92.14-41.37-.08-42.18-.6zM.89 190.09c-.52-.52-.89-1.77-.89-2.8 0-1.04.37-2.3.89-2.8 1.17-1.19 11.8-1.19 12.97 0 1.11 1.1 1.11 4.49 0 5.6-1.17 1.18-11.8 1.18-12.97 0zM30.98 189.64a4.45 4.45 0 010-6.93c4.64-3.76 11.06 1.25 7.6 5.97a5.28 5.28 0 01-7.6.96zM56.94 189.8c-1.11-.75-1.63-1.85-1.63-3.62 0-4.94-1.25-4.8 42.56-4.8 22.27 0 39.97.3 41 .67 3.32 1.25 3.32 6.63.08 8.11-1.33.59-13.65.81-41.08.81-34.37 0-39.46-.15-40.93-1.18zM199.13 188.61c0-.52.8-1.92 1.77-3.17 1.4-1.7 1.99-2 2.65-1.33.67.67.6 1.33-.44 3.1-1.33 2.29-3.98 3.17-3.98 1.4zM157.31 183.3c-1.33-2.8-.88-5.09.81-4.42 1.03.36 2.66 3.98 2.66 5.9 0 1.99-2.29.96-3.47-1.48zM177.52 182.86c-4.28-3.4-4.43-16-.15-19.7 2.66-2.28 6.93-2.28 9.07 0 4.2 4.5 4.2 14.98 0 19.55-2.06 2.14-6.27 2.21-8.92.15zm7.23-1.85c1.62-1.62 1.84-2.36 1.84-7.74 0-6.34-.59-8.33-3.02-9.59-3.7-1.99-6.57 1.85-6.57 8.78 0 4.87.96 8.11 2.73 9.51 1.84 1.33 3.03 1.11 5.02-.96zM204.66 177.55c-.52-1.48.66-5.98 1.7-6.34.58-.15.88.88.88 3.46 0 2.88-.3 3.76-1.1 3.76-.67 0-1.33-.44-1.48-.88zM155.17 172.16c-.59-1.47.6-5.67 1.63-6.04 1.25-.45 1.7 1.4 1.1 4.2-.52 2.73-2.06 3.76-2.73 1.84zM204.07 165.01c-1.7-1.25-2.73-6.86-1.18-6.34 1.47.44 3.98 5.68 3.1 6.56-.37.37-1.18.3-1.92-.22zM158.86 160.36c-.52-1.32 2.36-5.53 3.83-5.53 1.4 0 1.33 1.18-.22 3.76-1.47 2.51-3.1 3.25-3.61 1.77zM195.3 153.58c-2.52-1.55-3.18-3.1-1.63-3.69 1.4-.51 5.02 2 5.31 3.76.3 1.55-1.1 1.48-3.69-.07zM167.41 151.37c0-1.26 1.26-2.22 3.62-3.03 4.28-1.47 5.38.74 1.18 2.51-2.8 1.1-4.8 1.33-4.8.52z"/></g><g fill="#f90"><path d="M75.6 139.57c-2.88-.74-6.2-3.91-7.08-6.79-3.03-10.03 7.67-18.07 16-12.02 3.4 2.5 5.09 6.42 4.35 10.18-.59 3.39-4.28 7.45-7.6 8.4-2.87.74-3.31.82-5.67.23zm6.26-3.54a7.46 7.46 0 001.4-12.47c-6.93-5.82-16.44 3.1-10.91 10.18 2.66 3.4 5.9 4.13 9.51 2.29zM376.43 113.83c-.67-.3-.52-1.7.51-4.94.74-2.51 1.1-4.8.81-5.02-.3-.3-2.14-1.03-4.13-1.62-3.9-1.1-4.5-1.7-3.46-3.4.51-.8 1.18-.8 4.2.23 1.92.66 3.9 1.18 4.43 1.18.51 0 1.54-1.92 2.28-4.2 1.48-4.36 2.14-5.02 3.76-4.06.67.51.6 1.55-.59 4.86-.8 2.36-1.32 4.58-1.1 4.87.22.3 1.25.81 2.36 1.03 3.76.89 6.12 2.07 6.12 3.18 0 1.62-1.7 1.84-5.1.59-4.86-1.7-5.08-1.55-6.48 3.31-1.1 4.2-1.7 4.8-3.62 3.99z"/><path d="M213.14 107.63c-2.06-2.06-1.84-4.94.89-10.32 2.72-5.46 9.66-12.76 14.9-15.71 8.33-4.65 18.95-6.5 27.36-4.72 13.05 2.8 23.52 10.77 28.76 21.98 2.28 4.94 2.28 6.63.14 8.63-1.7 1.62-1.84 1.62-36.13 1.62-33.49 0-34.52-.08-35.92-1.48zm70.65-3.02c.45-2.36-3.9-9.88-8.4-14.46a36.78 36.78 0 00-52.8.3c-5.25 5.46-9.23 13.5-7.46 15.2.22.29 15.78.43 34.44.36 30.68-.22 34-.37 34.22-1.4z" fill="#1a1a2c"/><path d="M141.75 97.9c-5.6-9.15-7-11.66-6.64-12.02.67-.67 22.86-1.26 22.64-.6-1.18 3.18-9.95 20.88-10.32 20.88-.3 0-2.8-3.76-5.68-8.26zm9.37-3.69c1.54-3.47 2.72-6.56 2.5-6.79-.37-.36-14.3.3-14.82.67-.15.15 1.62 3.24 3.9 7 2.37 3.7 4.5 6.5 4.88 6.13.3-.3 1.91-3.47 3.54-7.01zM98.68 85l-.22-5.02-4.57-.23c-4.06-.22-4.65-.44-4.65-1.62 0-1.33.52-1.47 4.8-1.47h4.71l.22-4.94c.15-3.99.45-5.02 1.48-5.24 1.03-.22 1.33.52 1.47 4.8l.22 5 5.02.23c4.28.22 4.94.37 4.94 1.62 0 1.26-.66 1.4-4.94 1.62l-5.02.23-.22 5.01c-.22 4.28-.36 4.94-1.62 4.94-1.25 0-1.4-.66-1.62-4.94zM213.36 46.5c-5.75-3.55-2.88-12.62 3.98-12.62 3.62 0 6.86 3.32 6.86 7 0 2-.59 3.25-2.14 4.88-2.58 2.5-5.3 2.72-8.7.73zm6.56-2.81c1.48-1.33 1.78-4.65.45-5.97-1.26-1.26-4.72-1.11-6.05.3-3.69 3.6 1.77 9.14 5.6 5.67zM282.54 37.79c.07-2.8.3-8.11.59-11.8l.44-6.86 9.74 6.5c5.38 3.53 9.8 6.63 9.8 6.92 0 .67-18.73 10.18-19.9 10.18-.45 0-.74-2.06-.67-4.94zm9.88-1.84c3.47-1.7 6.27-3.32 6.27-3.62 0-.51-12.61-9-12.9-8.63-.15.15-.45 3.62-.74 7.82-.37 5.31-.3 7.52.3 7.52.44 0 3.6-1.4 7.07-3.1zM317.35 36.24a6.79 6.79 0 01-2.06-8.48c2.58-5.53 9.88-5.53 12.53 0 3.1 6.42-4.86 12.83-10.47 8.48zm7.6-3.47c2.36-3.6-1.63-7.67-5.46-5.6-2.14 1.18-2.73 3.54-1.33 5.6a4 4 0 006.79 0zM173.31 21.27c0-.81-.36-2.88-.8-4.65l-.82-3.17-4.72.89c-4.64.88-4.72.88-4.72-.74 0-1.4.6-1.77 4.5-2.5l4.5-.9-.44-2.72a93.33 93.33 0 00-.89-5.16c-.44-2.29-.37-2.51 1.26-2.22 1.25.15 1.84.74 1.99 2.07.15 1.03.59 3.02.96 4.5l.66 2.65 3.17-.59c5.09-.96 6.42-.8 6.42.74 0 1.18-.81 1.62-4.5 2.36l-4.5.88.44 3.25c.22 1.7.6 3.98.89 5.02.37 1.62.22 1.84-1.48 1.84-1.47 0-1.91-.37-1.91-1.55z"/></g></svg>