<svg viewBox="0 0 500 255" xmlns="http://www.w3.org/2000/svg"><path d="M0 128V0h500v255H0V128z" fill="#1a1a2c"/><g fill="#1a1a2c"><path d="M0 128V0h500v255H0V128zm142 75l2-6c0-4 0-5 4-6h6c4 1 4 0 0-3-4-2-6-4-6-8 0-5-1-9-2-9l-6 4-6 2c-2-2-10-4-11-3l3 5 3 6-4 4-4 5c-1 2-1 2 3 1 6-1 7-1 6-2l5-3c3-1 5-4 5-4l-4 1c-5 3-8 4-8 3l16-8v1 2l3 1c0 1-12 7-14 6l1 5c5 9 6 9 8 6zm276-12h4c4-1 3-2-1-5-3-2-4-4-3-5l-1-2v1c1 2-3 1-4 0v-3l3-2 2-4-4 3c-4 3-4 3-6 2-4-3-5-2-4 3v5l-2 2-2 4-2 3h11l4 3 2 4 1-5c0-3 1-4 2-4zM60 174l-1-2v-2l-1-3c1-4 1-4-4-3l-6-1-1-1v4a40 40 0 004 1c5 0 6 1 6 3 0 3 1 6 3 6v-2zm3-2h-2l1 1 1-1zm1-2h-2v1l2-1zm11-3c1-1 0-3-3-5l-3-2 2-2 1-2c-1 0-7 6-5 6l5 5-4-2h-4v3l6 1c4 1 5 1 5-2zm-23-7h3c2-1 2-1 2-4-1-5 0-5 2-1 2 2 3 3 5 2l4-1 5-2c1-1 1-1-2-1l-5 1c-2 1-4 0-6-3-3-4-4-4-5-3l-1 6c1 4 1 4-2 5l-2 2h1l1-1zm360-55c1-4 1-4 7-4l6-1-5-2c-4-2-4-2-4-5 1-5-1-7-4-4l-3 2-4-2c-8-4-9-2-4 4l2 4-2 3c-5 5-4 6 2 4 2-1 2 0 3 2 2 4 4 4 6-1zM73 91l1-7 8-2c12-3 12-5-3-15-4-2-5-3-5-5l1-3 1-2-1-5c-1 0-7 5-7 7 0 1-3 1-10-1-5-2-5-2-6 0l2 8 3 6-5 6c-2 3-5 6-5 8-1 2-1 2 2 2 14-3 15-3 17-1l3 8 3 4 1-8zm-12 2v-4l-1 5c0 5 1 5 1-1zM48 73c1-2 0-3-4-4-3 0-3 0-3 2 0 3 6 6 7 2zm204-2c-1-3-3-4-5-2l1 1c1-1 1 0 2 1l3 4-1-3zm7 3l-2-6-1 4c1 3 1 4 3 2zm-16-5c0-2 0-3 2-4l2-2-2-1-2-3c1-2-1-3-2 0l2 3 2 2-2 2c-2 2-3 4-1 4l2 1-1-2zm21-4l-4-4v2c1 1 2 2 1 4h1l2-2zM90 64c1-1 0-2-3-3s-5-1-5 2 8 4 8 1zm257 0l2-8 1-7 4-2c3 0 5-1 5-2l-5-5c-5-5-5-5-4-10 0-5 0-5-3-5-6-2-7-1-13 5-5 5-6 5-9 5-5-1-6 0-4 5 3 5 3 6-1 11-3 7-2 8 6 5l7-2 2 4 2 6c1 2 2 2 5 1l5-1zm-89-5c1-6-3-9-6-5l-4 2v1c2 1 3 1 4-1 3-4 4-4 4 1-1 4 1 5 2 2zM67 52l-1-5c-1-2-1-1-1 3l1 5 1-3z"/><path d="M132 184l12-6v1c0 1-2 3-5 4-6 2-7 2-7 1zm-1-3c-1-1-1-2 3-2l6-2 4-2-9 5-1 1h-3zm271 8l2-3c2-2 2-2 3 1 2 3 2 3 0 3-5 2-6 1-5-1zm6-90l1-1v1l-1 1v-1zM68 85l-2-5-7 2h-7l4-5c5-5 5-6 2-10l-1-4 5 1 3 1 5-5c4-4 4-4 4-2-2 11-3 10 4 14s6 5-2 7c-4 0-4 0-5 5v5l-3-4zm275-23l1-5 1-2v2l-1 5-1 3v-3zm-4-5c-2-6-4-7-9-4-8 3-9 2-5-4 2-3 2-6 1-10-1-1 0-2 2-2 2-1 5-2 7-5l4-4v5c0 6 0 6 4 9 6 4 7 6 3 7-4 0-6 3-6 8v4l-1-4z"/></g><g fill="#1a1a2c"><path d="M0 128V0h500v255H0V128zm355 93l2-2c0-1 0-2-1-1l-2 2c-3 1-6-1-138-53l-89-36-22-10 10-11 13-14 4-5V80a411 411 0 00-1-24l2-1c1-1 2-1 7 1l6 3 4 12c4 18 5 17-6 28l-19 16-10 9h1c4 0 39-32 39-36l-3-15-3-13 11 4 2 1 11 4c12 4 11 3 15 20 4 16 4 16-3 20l-40 26c1 1 43-25 46-28 2-2 2-2-1-15a196 196 0 00-5-18l25 9c3 2 4 2 7 15l3 14-25 17-24 17 22-13 25-17 4-4-2-7-5-20 17 6 1 4 1 3v-6a145 145 0 0120 8l13 5 11 4 7 21 7 24c0 2-4 5-17 13l-17 12-1 2c1 0 31-19 34-23 2-1 3-3 3-5l-7-22-7-21 20 8a557 557 0 0124 8l20 8 9 4 2 1 25 9c0 1-14 11-16 11l-4 2-7 6c-5 3-6 5-6 6 0 2 0 2 1 0 0-1 6-6 17-12l16-13-56-23-53-20-27-10-29-11a20690 20690 0 00-76-29c-4-1-6-2-8-1h-3v7l2 18v11l-13 15-14 16c0 2-6-1 72 31l121 48a2590 2590 0 0058 21zm1-8h-1l1 2v-2zm-8-6l5-2 1-2c0-2-1-1-9 3l-8 6 3-1 8-4zm7 0c-1-1-1 0-1 1l1 1v-2zm-213-4l1-6c1-5 1-5 5-5h6c4 0 4-1-1-4-4-3-5-4-5-7 0-6-1-10-2-10l-6 3-4 3-6-2-7-1 2 5 4 6-4 4-4 5c-1 2-1 2 2 2 10-3 10-3 12 2 4 7 5 8 7 5zm186-13l18-13-2-11a307 307 0 00-7-30l4 22c3 17 3 18 1 19a1788 1788 0 00-33 25c0 1 4-1 19-12zm25 7c-1-1-1 0-1 1l1 1v-2zm65-6h4c4-1 3-2-1-5-3-2-4-4-3-5l-1-2h-1c0 2-1 2-3 1v-3c1-2 4-2 4-1 1 1 1 0 1-2v-4l-4 3c-4 4-4 4-6 3-4-3-5-2-4 3v5l-2 3-2 3c-4 3-2 5 6 3 4-1 4-1 7 3l2 4 1-5c0-3 1-4 2-4zm-66 1c-1-1-1 0-1 1l1 1v-2zm-57-6l28-24-7-18-9-20-2-3 4 10 8 20 4 11-7 6a267 267 0 01-29 24c0 1 2 0 10-6zm56 1c-1-1-1 0-1 1l1 1v-2zm-1-5c-1-1-1 0-1 1l1 1v-2zm-1-5c-1-1-1 0-1 1l1 1v-2zm-288-2l-1-2-1-1c-1-9-1-8-5-8l-5-1-2-1v4l9 1v4l1 4c1 2 4 1 4 0zm3-5c0-2 1-2 4-1l4 1 3-2c1-2 1-3-3-5l-3-4 2-1 2-2v-1c1-2 1-2-2-2l-5 1c-2 1-3 0-6-3-3-4-4-4-5-3l-1 6c1 4 0 4-2 5l-3 2 4-1c4-1 4-1 4-5-1-4 0-4 2 0 2 2 3 3 5 2l5-1h2l-3 3-1 3 5 5-4-1c-2 0-3-2-3-2l-4 8c0 2 2 1 3-2zm184-9l15-10a163 163 0 00-8-39l4 19 3 19-15 10c-16 9-17 10-15 10l16-9zm114-5l-1 1 1 1v-2zm-148-9a312 312 0 0126-14l-1-10a526 526 0 01-1 9l-7 4-34 20c0 1 1 1 17-9zm145 3v2l1 1-1-3zm-3-8l-1 1 1 1v-2zm-211-28c21-17 22-19 22-22l-3-14-2-12h-1l2 13 3 14a408 408 0 01-21 21zm110-7c-1-1-1 0-1 1l1 1v-2zm157-2c1-4 1-4 7-4h5l-4-3c-4-2-4-2-4-5 1-5-1-7-5-4l-2 2-4-2c-8-4-9-2-4 4l2 4-2 3c-5 5-4 6 2 4 2-1 2 0 3 2 2 4 4 4 6-1zm-158-2h-1l1 2v-2zM73 91v-7l9-2c12-3 11-5-3-15-5-2-6-5-4-6l1-6v-5l-3 2-4 5c-2 3-2 3-11 1-5-2-5-2-6 0s0 4 2 8l3 6-5 6-6 8c0 2 0 2 3 2 14-3 15-3 16-1l4 8 3 4 1-8zm-11 1l-1-3-1 5c0 3 0 4 1 3l1-5zM48 73c1-2 0-3-4-4-3 0-3 0-3 2 0 4 6 6 7 2zm206 1l-2-3c-1-3-1-3-7-1-3 0-3-2 0-4l2-2-2-2c-2-2-2-3-1-4h4c2 0 3 0 4-2 3-4 4-3 4 1-1 3-1 4 2 5s3 1 3 4c-1 2 0 2 1 2l2-1v-2l-3-4c-3-1-4-1-3-5 0-4 0-4-2-4l-5 2a6 6 0 01-4 2c-5 0-8 4-4 7v2l-2 4c0 1 1 2 4 2s4 0 5 2l3 2c2 0 2 0 1-1zm5-3l-1-3c-1 0-2 1-2 4 0 4 2 4 3-1zM90 64c1-1 0-2-3-3s-5-1-5 2 7 4 8 1zm257 0l1-8 1-7 5-2c3 0 5-1 5-2l-5-5c-5-5-5-5-4-10 0-5 0-5-3-5-6-1-7-1-13 5-5 5-6 5-9 5-6-1-7 0-4 5s2 6-1 11c-3 7-2 8 6 5 3-2 7-3 7-2l1 4 3 6c1 2 2 2 5 1l5-1zM67 53l-1-5-1-2c-1 3 0 9 1 9l1-2z"/><path d="M134 190c8-4 7-5 0-2l-6 2 15-7 3-1-3 2-2 2 2-1 3 1c1 1-9 6-14 7-3 0-3 0 2-3zm-2-6l12-6v1c0 1-2 3-5 4-6 2-7 2-7 1zM343 62l1-5 1-1-1 5c-1 3-1 3-1 1z"/></g><g fill="#1a1a2c"><path d="M0 128V0h500v255H0V128zm357 93l-4-25c-4-19-5-24-4-25l17-11c11-7 15-11 15-12s-3-3-8-4l-13-5-72-28-74-28-31-12-41-16c-5-1-11-2-13-1l1 18 1 18-5 6-14 15c-5 5-8 10-8 11l83 34 122 50c32 12 41 16 44 16l4-1zm-215-18l2-6v-5h7l6-1-4-3c-4-3-5-4-5-7 0-6-1-10-2-10l-6 3-4 3-6-2-7-1 3 5 3 6-4 4-4 5c-1 2-1 2 2 2 10-3 10-3 12 2 4 7 5 8 7 5zm276-12h4c4-1 3-3-1-6-3-2-3-2-3-9v-7l-4 4c-4 4-4 4-6 3-4-3-5-2-4 2s1 4-2 9l-4 6h8c4-1 4-1 7 3l3 4v-5c0-3 1-4 2-4zM63 172c1-4 2-4 5-3l5 1 2-2c1-2 1-3-2-5-4-4-4-4-2-5l2-3c1-2 0-2-2-2l-5 1c-2 1-3 0-6-3-3-4-4-4-5-3l-1 6c1 4 1 4-2 5-4 2-8 7-5 7l9 1 1 4c0 6 3 7 6 1zm349-67c1-4 1-4 7-4l6-1-5-2c-4-2-4-2-4-5 1-5-1-7-4-4l-3 2-4-2c-8-4-9-2-4 4l2 4-2 3c-5 5-4 6 2 4 2-1 2 0 3 2 2 4 4 4 6-1zM73 91l1-7 8-2c12-3 12-5-3-15-5-2-6-5-4-7l1-5v-5l-3 2-4 5c-2 3-2 3-11 1-5-2-5-2-6 0l2 8 3 6-5 6c-2 3-5 6-5 8-1 2-1 2 2 2 14-3 15-3 17-1l3 8 3 4 1-8zm-11 1l-1-3-1 5c0 3 0 4 1 3l1-5zM48 73c1-2 0-3-4-4-3 0-3 0-3 2 0 3 6 6 7 2zm211-2l-1-3c-1 0-2 1-2 3l-1 2c-1 1-2-1-3-2-1-3-2-4-5-2-4 2-5-1-2-4l2-2-2-2c-3-2-1-4 3-4 2 1 3 1 4-1 3-4 4-3 4 1-1 3-1 4 2 5s3 1 3 3c-1 3 0 3 1 3 3-1 2-5-1-7-3-1-3-2-3-5 0-4 0-4-2-4l-5 2a7 7 0 01-4 2l-5 2-2 2 2 2 2 2-2 2c-3 3-1 5 4 5 2-1 3 0 4 2s2 2 5 2 4-1 4-4zM90 64c1-1 0-2-3-3s-5-1-5 2 8 4 8 1zm257 0l2-8 1-7 4-2c3 0 5-1 5-2l-5-5c-4-5-5-5-4-10 0-5 0-5-3-5-6-2-7-1-13 5-5 5-6 5-9 5-5-1-6 0-4 5 3 5 3 6-1 11-3 7-2 8 6 5l7-2 2 4 2 6c1 2 2 2 5 1l5-1zM67 53v-6c-2-3-2-3-2-1-1 3 0 9 1 9l1-2z"/><path d="M349 220a26403 26403 0 00-242-98c-2-1 1-5 13-17a171 171 0 0010-11l2-1V73l-2-14 1-3 2-1c1-1 3-1 7 1l7 3 3 13 3 15c0 3-14 17-29 29l-8 8 3-1c24-20 36-32 36-35l-3-15c-4-13-4-13-1-13 4 2 9 4 9 6 2 5 6 26 5 27l-25 23c-12 10-14 13-12 13l25-21c16-14 16-12 11-31l-2-12 10 3 10 4c2 1 4 9 8 24v9l-24 16-22 14c0 2 3 0 22-11 26-16 27-17 27-19a271 271 0 00-6-31l22 9 4 2 4 13c3 11 3 14 2 15l-22 15c-24 16-27 18-26 19l6-3 25-17 20-15-4-14-3-12c1-1 16 5 17 6l3 17 3 20c1 3 1 3-4 5l-38 22c0 2 3 1 14-6l21-12 9-5-3-19-3-20c0-1 3-1 9 1l9 4 4 17 5 24c1 7 2 9 1 10l-17 11-14 9c0 1 8-3 17-9 14-8 16-10 16-12l-5-26-5-23c0-1 23 8 24 10 2 2 14 42 14 44-1 2-6 6-19 14l-16 13a826 826 0 0136-24v-11l-13-36 12 4 11 4 3 6 9 22 6 16-6 5a430 430 0 01-30 25c3 1 38-27 38-30l-8-21-9-21 30 12 4 20 3 21c1 2 0 3-5 7-19 14-29 21-28 22h2l18-13c15-11 16-12 16-15l-2-12-4-19-2-11 8 3 7 2 4 10 5 12-7 7c-5 2-8 5-8 6l3 15 2 14c-1 1-4 4-9 6-7 4-10 6-7 6l9-4 8-3 3 13-2 1h-2-3zm13-64l-4-10-3-7 24 9c1 1-13 11-15 11-1 0-2-1-2-3zm-225 39l2-3c2-1 2-1 2 1l-2 2h-2zm-3-5c4-2 6-3 5-4l-6 3-5 1 15-8h3l-3 2-2 2h5c1 1-10 6-14 7-3 0-3 0 2-3zm12-1l2-1v1l-3 1 1-1zm-14-5l12-6v1s-2 3-6 4l-6 1zm-1-3c-2-1-1-2 1-2l7-2 5-2-6 4-7 2zm271 9l4-5 2 2c1 2 1 3-1 3h-5zm11-11v-3c2-2 4-2 4 1l-1 3c0 1-1 1-3-1zm-354-9c0-7 0-7-5-6-5 0-6-1-1-3 4-2 4-2 4-6-1-4 0-4 2 0 2 2 3 3 5 2l5-1h2l-3 3-1 3 5 5-4-1-3-2-3 5c-2 5-3 5-3 1zm349-71l1-1v1l-2 1v-1zm-2-2l1-1v2l-1-1zM68 85l-2-5-7 1-7 1 4-5c4-5 5-6 2-10l-1-4 5 1c3 1 3 1 7-3l4-5v7l-1 6 6 3c6 5 6 5-2 6-4 1-4 1-5 6l-1 5-2-4zm284-41l-6-4c-3-2-3-3-3-8 0-4 0-5 2-5s1 1 1 5 1 5 4 9l4 4-2-1z"/></g><g fill="#f90"><path d="M351 218l-3-1-4-2-5-2 7-4 7-4 1 6v8l-3-1zm-21-8l-2-2-2-1c-3 0-13-4-13-5l3-3a543 543 0 0030-23c0-3 3 7 4 15l1 8c1 2 0 3-7 7-9 5-10 6-14 4zm-27-11l-10-4-5-3 11-8 19-15 7-7-5-10-9-20-4-11 28 10 2 7 5 33 1 5-17 12-18 13-5-2z"/><path d="M282 190l-5-1-3-1-2-2-7-3-5-2 15-10c16-11 19-13 20-16a231 231 0 00-14-44c1 0 6 1 11 4 12 4 11 2 22 29l6 17-2 3c-5 5-27 23-33 26h-3z"/><path d="M254 179l-4-1c-2 0-2 0-1-1l-1-1-13-5c-1 0 5-5 13-9s15-10 16-11 1-3-1-11l-9-40 14 5 5 2 4 2 8 22c5 15 7 22 6 23l-14 11c-19 13-22 15-23 14zm92-9l-2-11a393 393 0 00-5-26l4 1 6 3c3 0 4 2 8 11l4 12-15 10z"/><path d="M225 167l-7-2-4-2-7-3-7-3c0-1 27-17 35-20 5-2 6-3 6-5a302 302 0 00-7-39l17 6c1 2 11 50 10 51l-32 19-5-2zm134-18l-4-10 24 9-15 11-5-10z"/><path d="M191 154l-4-1-7-4-6-2 7-5a1010 1010 0 0142-30l-4-14-3-11 8 2 8 3 2 15 3 20 1 5-10 5a471 471 0 00-33 18l-4-1z"/><path d="M165 144l-7-3-5-3c-6-1-5-2 5-9l22-13 13-10a460 460 0 00-6-31l9 3 14 5c3 1 3 2 6 15l4 14-19 12a913 913 0 00-31 21l-5-1z"/><path d="M138 133l-5-3-4-2 7-5 32-29-3-15-3-14 11 4c11 4 10 4 13 15l5 20-7 5-13 8-15 10c-11 7-17 9-18 6z"/><path d="M122 126l-4-2 9-7c11-9 28-25 29-28l-3-15-4-13h3l3 2 1 1h3l6 28a227 227 0 01-36 34l-2 2-5-2z"/><path d="M111 122l-2-2 9-11 14-15 4-4-2-17-1-18c0-1 11 3 13 5l6 27c1 1-2 4-10 12-10 10-27 24-28 24l-3-1z"/></g><g fill="#fafafa"><path d="M0 128V0h500v255H0V128zm357 93c1-1 0-5-3-24l-5-25 17-11 16-13c-1-2-2-2-93-37a5783 5783 0 01-70-27l-47-18c-41-15-38-14-41-13s-3 2-2 6l1 17 1 13-7 8-14 16-7 9 14 7 64 26 58 23 108 43c4 2 9 2 10 0zm-215-18l2-6v-5h7l6-1-4-3c-4-3-5-4-5-7 0-6-1-10-2-10l-6 3-4 3-6-2-7-1 3 5 3 6-4 4-4 5c-1 2-1 2 2 2 10-3 10-3 12 2 4 7 5 8 7 5zm276-12h4c4-1 3-2 0-5l-4-2v-7-7l-5 4c-3 3-3 3-5 2-4-3-5-2-4 2s1 4-2 9c-6 7-5 8 4 6 4-1 4-1 7 3l3 4v-5c0-3 1-4 2-4zM63 172c1-4 2-4 5-3l5 1 2-2c1-2 1-3-2-5-4-4-4-4-2-5 2-2 4-6 2-6l-5 1-4 2-4-4c-3-4-4-4-5-3l-1 5c1 4 0 4-3 7-4 2-6 5-5 6l8 1 2 2 1 5c1 4 3 3 6-2zm349-67c1-4 1-4 7-4l6-1-5-2c-4-2-4-2-4-5 1-5-1-7-4-4l-3 2-4-2c-8-4-9-2-4 4l2 4-2 3c-5 5-4 6 2 4 2-1 2 0 3 2 2 4 4 4 6-1zM73 91l1-7 8-2c12-3 12-5-3-15-5-2-6-5-4-7l1-5v-5l-3 2-4 5c-2 3-2 3-11 1-5-2-5-2-6 0l2 8 3 6-5 6c-2 3-5 6-5 8-1 2-1 2 2 2 14-3 15-3 17-1l3 8 3 4 1-8zm-11 2c0-4-2-6-2-2v4 3c1 2 2-1 2-5zm197-19l1-3 2-3c4-2 3-4-1-7-2-1-3-2-2-5 1-5-5-6-9-2l-4 2c-5 0-8 4-4 6 2 1 2 1 0 4-3 3-2 5 3 5h4c0 2 4 5 6 5l4-2zM48 73c1-2 0-3-4-4-3 0-3 0-3 2 0 3 6 6 7 2zm42-9c1-1 0-2-3-3s-5-1-5 2 8 4 8 1zm257 0l2-8 1-7 4-2c3 0 5-1 5-2l-5-5c-5-5-5-5-4-10 0-5 0-5-3-5-6-2-7-1-13 5-5 5-6 5-9 5-5-1-6 0-4 5 3 5 3 6-1 11-3 7-2 8 6 5l7-2 2 4 2 6c1 2 2 2 5 1l5-1zM67 53c1-2 0-9-1-9-3 1-2 11 0 11l1-2z"/><path d="M353 218l1-1 1 1c0 1-2 2-2 0zm-9-3l-5-2 7-4 7-4v9l-3 1c-1 2-2 2-6 0zm-14-5c-2-1-3-3 0-4 2 0 9-6 16-12l4-4 1 6 1 6-18 9-4-1zm-12-5l-5-3 3-3a543 543 0 0030-23l2 4c1 8 2 7-10 17l-10 9c-1 2-5 1-10-1zm-14-6l-3-1 10-8c10-8 23-21 23-23l-10-36-2-5 6 2c8 3 8 3 9 10l5 33 1 5-17 12-18 13-4-2z"/><path d="M292 194l-4-2 11-8 19-15 7-7-5-10-9-20-4-11c1-1 13 5 14 6l5 19 5 20c0 4-31 30-34 30l-5-2z"/><path d="M281 190l-3-2 10-9c14-11 16-14 16-17l-4-18-5-15-3-12c0-2 0-2 2-2 7 3 9 4 11 9 7 14 15 37 15 38-1 2-28 24-36 28h-3z"/><path d="M272 186l-7-3-5-2 15-10c16-11 19-13 20-16a231 231 0 00-14-44l5 1c3 1 4 2 4 5l6 23 5 22-4 5-23 20-2-1z"/><path d="M253 179c-3-1-4-3-2-3l23-19 6-6-4-15-6-22-2-8 2 1c7 2 7 1 15 24 5 15 7 22 6 23 0 2-6 6-14 11-20 14-21 15-24 14z"/><path d="M240 174l-5-3c-1 0 5-5 13-9s15-10 16-10c1-2 1-4-1-12l-9-40 13 6 2 13c8 31 8 30 3 35l-11 10c-9 7-10 9-9 10l-1 1h-1c0 2-4 1-10-1zm106-4l-2-11a393 393 0 00-5-25h3l4 4c0 5 6 20 8 24l2 3-5 3-5 2z"/><path d="M224 167l-5-2 14-8 18-10 3-3-2-12-5-25c-2-11-2-10 0-9l4 1c1 2 11 50 10 51l-32 19-5-2z"/><path d="M207 160l-6-3c-1-1 26-17 34-20 5-2 6-3 6-5a302 302 0 00-7-39l8 3 2 6 2 10 4 25 1 6-4 3-33 17-7-3zm149 0l-3-8-3-6-1-2-2-5c-1-3-1-3 2-2l3 1 5 11c4 9 4 11 3 12-2 3-3 2-4-1zm3-11l-4-10c1-1 12 5 13 6l2 5 2 4-4 2-4 3-5-10z"/><path d="M192 154l19-10 21-10-1-7a314 314 0 00-1-36l5 20 3 20-10 6-21 11c-10 7-12 7-15 6zm180-3l-1-3c-1-3-1-3 3-2 5 2 6 3 2 5-3 2-3 2-4 0z"/><path d="M180 149l-6-2 7-5a1010 1010 0 0142-30l-4-14-3-11 6 1 5 2v12l2 20v9l-7 4-35 17-7-3z"/><path d="M166 144c-4-1-4-2 0-4l7-4 16-9c17-10 21-13 22-15l-1-9-2-13-1-7h2c4 1 4 1 7 15l4 14-19 12-24 17c-7 4-7 4-11 3z"/><path d="M154 139c-7-3-7-3 4-10l22-13 13-10a366 366 0 00-6-31l8 3 10 3 1 5 1 12c2 12 2 14-6 18l-7 4-5 3a515 515 0 01-29 17l-6-1z"/><path d="M141 133l24-21c14-10 13-8 13-18V84l-1-13c2 0 6 3 7 5l7 28-7 5-13 8-15 10c-12 7-14 8-15 6z"/><path d="M133 130l-4-1 7-6 32-29-3-15-3-14 6 2 6 3v7l2 15v9l-4 3c-11 7-17 12-26 20l-9 8-4-2z"/><path d="M121 126l-3-2 9-7c11-9 28-25 29-28l-3-15-4-13h3c2 1 3 2 4 5l4 20v5l-15 15-17 18c-2 3-3 3-7 2z"/><path d="M112 122c-1 0 1-3 7-8l17-17 9-9v-6l-2-11-1-10c-1-3-1-4 1-3l3 2 6 24 1 5-11 10c-9 9-26 24-28 24l-2-1z"/><path d="M113 115l19-21 4-4-2-17-1-18h3c4 1 4 1 6 25v9l-6 5a370 370 0 00-24 21zm36-8l14-16a700 700 0 01-4-18l-2-8c-1-2 0-3 2-1l6 28-12 12c-11 10-11 10-4 3zm-10 91l1-1v2l-1-1zm-2-3l2-3h2l-2 3h-2zm-3-5l6-4-6 2-6 2 4-3 5-2 5-2v1l-1 2h5c1 1-8 5-13 6-4 1-4 1 1-2zm-2-8c-3-2-2-3 2-3 3-1 4 0 1 1-1 1-2 1-1 2l5-2 4-1c1 1-1 3-2 2l-1 1-1 1h-3c-2 1-3 0-4-1zm-4-5h2l-1 1-1-1zm12-1h3l-4 2c-1 0-1-1 1-2zm274 17l-1-2c1-1 2 1 2 2h-1zm-12-3l4-5 2 2v3l-4 1c-2 0-3 0-2-1zm8-2c-2-5-3-6-1-7 1 0 7 4 7 6-1 2-4 2-6 1zm7-1l1-1 1 2h-1l-1-1zm-4-8l-1-1 2-2c2-1 2-1 2 2s-1 4-3 1zm-7 0l1-1 1 2h-1l-1-1zm-346-8l-1-5c-1-2-1-3-6-3l-5-1 5-1c4-2 4-2 4-6-1-4 0-4 2 0 2 2 3 3 5 2l5-1h2l-3 3-1 3 5 5-4-2c-3-1-5-1-5 2l-2 3-1 1zm350-79l2-1h1c-1 2-3 3-3 1zM68 85l-2-5-7 1-7 1 4-5c4-4 5-6 2-10l-1-4 5 1c3 1 3 1 7-2l3-4v11l6 3c6 5 6 5-2 6-4 1-4 1-5 6l-1 5-2-4zm184-15c-1-4-1-4-5-2-3 2-3 2-3 0l2-3 2-1-2-2c-3-3-2-5 2-4 3 0 4 0 5-3l2-3v4c-1 4 0 5 2 6 5 2 5 5 1 5-3 0-3 0-2 3l-1 4-3-4zm91-8c0-1 0-2 1-1v2c-1 1-1 0-1-1zm-4-5c-1-6-3-7-10-4l-6 2 2-6c2-4 2-6 1-10-1-1 0-2 2-2l7-5 4-5v6c0 6 0 6 4 9 6 4 7 6 3 6-4 1-6 4-6 8v4l-1-3zm5 0c0-1 0-2 1-1v2c-1 1-1 0-1-1z"/><path d="M352 44l-6-4c-3-2-3-2-3-8 0-3 1-5 2-5l1 5c0 4 0 5 4 9l4 4-3-1z"/></g></svg>