<svg viewBox="0 0 500 409" xmlns="http://www.w3.org/2000/svg"><path d="M0 204.5V0h500v409H0V204.5z" fill="#1a1a2c"/><path d="M238.1 209.4a59 59 0 01-33.8-27 55.9 55.9 0 01-4.8-38.2 55.7 55.7 0 0145.4-41.4 54.8 54.8 0 0162 53.7 55.1 55.1 0 01-40.4 53 71.5 71.5 0 01-28.4-.1z" fill="#16eb4c"/><g fill="#1a1a2c"><path d="M0 204.5V0h500v409H0V204.5zm408.5 120.3c-1-4.6-3.2-8.6-5.4-9.8-1.5-.8-1.8-1.7-1.4-4.8.5-3.7.3-4.1-5.6-9.2-7.2-6.2-8.3-8.6-5.1-11.2 1.6-1.3 3.9-1.8 8.6-1.8 5.1 0 6.8-.4 8.4-2 1.1-1.1 2-2.5 2-3 0-.6-2.7-4-6.1-7.6-3.3-3.6-5.9-7-5.6-7.7.4-1.2 2.9-1.3 14.7-.6 8.2.5 8.8-1.1 3-8.3-3.9-5-4-5.2-2.3-6.9 1.1-1.1 4.6-2.2 9.3-2.8 5.1-.7 7.9-1.6 8.7-2.7 3-4.1.9-6.9-8.5-11.9-8.1-4.3-7.9-5.8.8-8.6 13.6-4.2 15.4-8.4 5.9-13.2l-5.6-2.8.9-4.7c2.1-10.9 2.1-12.9-.2-15.2-2.1-2.1-3.2-2.2-7.2-.5-1.5.6-1.8.1-1.8-3 0-3.2.7-4.3 4.7-7.9 6.4-5.6 10.3-12 10.3-16.9 0-5.3-1.4-7.5-5.8-8.6-3.4-1-3.8-1.5-4.8-5.6l-1-4.5h4.7c5.1 0 6.6-1.1 7.5-5.6.8-4-2.5-8.1-7.2-9-2-.4-3.7-1.2-3.9-1.8l-.9-3.8c-1-4.7-4.5-7-9.3-6.5-4.2.4-4.3.4-4.9-3-.8-4.5-4.3-6.7-9-6a14 14 0 00-5.3 2.1c-1.4 1.3-1.9 1.3-3.5 0-1.1-.8-3-1.4-4.3-1.4-2.6 0-9.9 6.1-10.8 9.1-.5 1.6-1.2 1.9-4 1.3-2.8-.5-3.8-.2-5.8 2-2.8 3.1-4 7.6-3.1 12.3.5 2.6.3 3.3-.9 3.3-1.3 0-1.7-1.4-1.9-6.2-.3-6.1-.4-6.3-3.2-6.6-3.8-.5-4.9.9-5.6 6.6-.5 5.1-.9 5.3-7.7 3.7-4.4-1-5.3 1.4-2.4 6.5 2.1 3.8 2.7 7 1.3 7-.4 0-4.8-3.7-9.7-8.2-13.3-12-20.6-16.4-33-19.8-2.3-.6-6.3-3.1-9.5-6l-5.5-5H359l.6-2.5c.8-3.2-1.9-10.5-5.3-14.6a25.9 25.9 0 00-15.5-8.3c-3.4-.2-5-1-7.8-3.8-6.4-6.4-15.8-7.4-21.9-2.3-2.5 2.2-3.9 2.5-10.4 2.5-11.2 0-16.7 2.9-16.7 8.9 0 2.6-.4 2.9-4.3 3.5-6 .9-10.6 4-11.3 7.5l-.6 2.9-10.2-.5c-7.7-.4-11.5-.2-15.8 1.1-7.9 2.3-8.1 2.2-7.4-1.8a17 17 0 00-4.9-15.4c-3.4-3.1-4.1-3.3-8.8-3-2.9.3-5.9.8-6.8 1.2-1.2.5-1.9-.1-2.9-2.4-2.8-6.7-14.4-14-22.3-14-1.6 0-4.5.9-6.3 2.1l-3.3 2-4.3-2.4c-7.9-4.5-18.2-4.2-22.5.7a18 18 0 00-2.8 6.6c-.7 4.1-.8 4.2-3.9 3.5-8.1-1.7-10.4-1.7-14.9.3a13.4 13.4 0 00-8.7 11.6l-.5 4.1-6.3.7c-10.5 1.2-15.8 5.7-14.8 12.7.7 4.4 3.2 7.1 6.9 7.1 2.8 0 2.9.2 2.3 3.1-.3 1.7-.6 4-.6 4.9 0 1.2-1.3 2.3-3.7 3.1a60 60 0 00-19.4 10.8 23.2 23.2 0 00-5.8 29.3c1.9 4 2.1 5.1 1.1 7.3-1 2.1-1.5 2.4-3.1 1.5-3.2-1.7-8.6-1.2-10.5.9-2.4 2.6-1.5 5 3.9 11.2 6.3 7 7.2 8.9 4.9 10.6-1 .7-2.4 1.3-3 1.3-2.3 0-6.3 2.2-6.9 3.8-.9 2.4 2.1 5.9 6.8 8 5 2.2 9.7 7.4 9.7 10.7 0 2.8-.9 3.5-7 5.5-3.4 1.1-4.6 2.1-4.8 3.8-.5 3.3 2.2 5.9 10.8 10.2 10.6 5.3 13.1 11.3 5.2 12.5-2.1.3-5.5 1.1-7.7 1.8-3.6 1.1-4 1.5-4 4.6 0 3.4.2 3.6 10.6 8.7 16.7 8.2 20.5 14.7 9.9 16.9-8.7 1.8-16 8.2-18.1 15.7a34.8 34.8 0 002.1 20.1l2.1 5.7h329.1l-.7-3.2z"/><path d="M81.6 326.3c-1.4-1.4-3.4-7-4.6-12.7a20.7 20.7 0 0112.5-24.2c9.5-4 26.2-3.5 36.4 1.2 4.5 2 8.2 4.9 15.2 12.2 5.5 5.5 11 10.3 13.4 11.3 8.8 3.9 17.9 3.3 37.2-2.5 12.3-3.7 18.4-4.1 27.8-1.6a42 42 0 018.8 2.9c.6.6.1 2.2-1.2 4a37.2 37.2 0 00-3.6 6.5L222 327h-69.8c-38.4 0-70.2-.3-70.6-.7zM224 325.8c0-2.8 6.5-11 10.7-13.5 6.4-3.7 14.6-4 33.8-1.3 20.9 3 28.1 2.6 40-2.4 18.3-7.7 19.4-8 29-8 8.2 0 10 .4 19.9 4.2a77 77 0 0023.8 5.7c8.9.9 14.3 2.1 17.5 3.6 4.7 2.3 8.3 6.9 8.3 10.7v2.2h-91.5c-68.9 0-91.5-.3-91.5-1.2z"/><path d="M155.1 312.8a70.8 70.8 0 01-13-11c-11.9-12.4-17.3-15.1-33.6-16.5-7-.5-7.5-.8-7.5-2.9 0-4.1-4.9-8.4-15.9-13.8-7.9-3.9-10.7-5.8-10.9-7.3-.4-2.7 1.7-3.9 8.3-4.8 5.6-.8 8.5-2.8 8.5-5.9-.1-3.4-3-6.2-10.5-9.9-11.7-5.8-13.4-9.7-5.1-11.8 5.6-1.4 8.1-3.9 7.2-7.3-.9-3.6-6-9.1-9.8-10.6-8.4-3.4-9-7-1.5-9.6 6.4-2.3 7-4.4 2.7-9.9l-5.9-7.8c-3.5-4.5-3.1-6.4 1.4-7.3 4.5-.8 7.1.8 9.9 6.4 1.3 2.6 3.4 5.6 4.6 6.7 2.1 1.9 2.2 1.9 7.5-.9 2.9-1.6 6-2.6 6.9-2.3 2 .8 2.1 5.5.1 14.1-.8 3.5-1.2 7.1-.9 8 1 2.5 5.7 1.9 10.5-1.4 9.8-6.6 13.8-1.9 8.4 9.8-4.6 9.9-3.3 12.2 6.7 12.2 5 0 6.8.4 6.8 1.3a31 31 0 01-5.5 7.7c-8.6 9.9-7.3 12.6 5.2 11.5 6.8-.6 8.1-.5 9.3 1 1.2 1.5 1 2.5-1.9 8.1-6.7 12.8-3.2 16.7 12 13.2 4.9-1.1 5.2-1.1 7.1 1.1 2.2 2.9 1.8 4.8-2.7 11.6-4.5 6.7-5 9-3 12.1 1.6 2.4 2 2.5 7.4 1.9 4.8-.5 6.1-.3 8.1 1.3 2.4 1.9 2.4 2 .9 8.3-1.3 6-1.6 6.4-4.4 6.7-1.7.1-5-.8-7.4-2z"/><path d="M167.4 312.4c.4-1.6.9-4.9 1.2-7.4.8-6.1-.8-7.4-10-8-6.9-.5-7.1-.6-7.4-3.3-.3-2.1.8-4.6 3.7-8.9 4.5-6.7 5.1-10.6 2.1-13.3-1.5-1.3-3-1.6-6.5-1.3l-4.6.6.3-9.2.3-9.1 85.2-.3 85.1-.2 3.2 6.7c5 10.8 16.8 28.3 19.1 28.3.5 0-1.3-2.8-3.9-6.2a110.6 110.6 0 01-15.7-26.7c-4.2-12.8 6-21.2 14.7-11.9 4.5 4.8 6.3 12.4 6.3 27 0 7.1.3 12.8.8 12.8 1.1 0 1.2-16.2.1-25.2l-.6-4.7 7.9-.4 7.8-.3-8-.2-8-.2-2.3-5.1c-3.5-7.5-10.6-10.9-16.3-7.9-2.5 1.4-4.9 6.2-4.9 10v3H145.9l.3-11.2.3-11.3 99.3-.3 99.2-.2.9 2.2 3.1 7.9c2 5.4 7.9 13.6 8 11.3 0-.6-.7-1.7-1.6-2.5-4.2-3.5-9.6-19.9-9.8-29.8-.1-9.1 2.5-15.8 7-17.7 4.1-1.7 7.6-.6 10.1 3.3 2.8 4.3 2.3 18.2-1 30.4-2.8 10-3.4 13.7-1.8 10.9 1.9-3.3 6.1-24.4 6.1-30.6 0-11.4-3.8-16.6-12.1-16.3a40 40 0 01-9.8-1.3c-4.9-1.3-5.2-1.5-3.5-2.8.9-.8 4.4-7.1 7.6-14 7.2-15.1 9.3-17.5 16.5-19.1a50 50 0 0021.5-10c17.4-11.5 25.4-13.6 30.2-7.8 1.6 1.9 2.6 4.3 2.6 6.3 0 2.9-.7 3.7-4.8 6.3-3.9 2.4-5.5 4.4-8.9 10.9-4.1 7.8-9 22-8 23 .3.3 1.7-3.2 3.2-7.8 6.4-19.3 12.3-26.8 21.3-26.8 10.2 0 11 9.6 1.6 20-4.5 5-9.8 8.7-19.1 13.5-3.7 1.9-6 3.5-5.1 3.5.9 0 4.6-1.6 8.2-3.5 3.7-1.9 6.8-3.5 7.1-3.5.7 0 .6 7-.1 9.8-.4 1.4-1.6 2.4-3.3 2.8a34 34 0 00-14 5.2 110.4 110.4 0 00-18.1 15.5c0 .4 3.7-2.4 8.3-6.2 11.5-9.7 18.2-13.1 25.8-13.1 5 0 6.4.4 8.4 2.5 1.4 1.3 2.5 3.1 2.5 4 0 9.2-15.5 15.5-37.9 15.5-7 0-9.2.3-8.4 1.1.7.7 4 1 8.7.7 5.3-.2 7.6 0 7.6.8 0 1.7-1.9 2.9-7.4 4.8a61.4 61.4 0 00-21.6 14.2c-6.2 6.7-4.7 6.7 2.2-.1a50.8 50.8 0 0134-15.5c8.8 0 11.8 2 11.8 7.8 0 4.8-2.2 8.4-6.8 11-5.4 3-10.9 4-28.7 5.2-20.9 1.4-18.9.6-18.6 7.6l.2 5.9-6.6 5.8a28.3 28.3 0 00-6.5 7.2c0 .8 1.8-.5 4.1-3a40 40 0 0129.2-13.6c7-.1 9.7 1.7 9.7 6.7 0 9-16.8 17.5-37.7 19.1-4.5.3-8 .9-7.8 1.3.2.4 3.9.5 8 .2l7.6-.5-.3 4.4c-.3 3.9-.7 4.6-4.3 6.7-3.4 1.9-4.8 2.2-9.5 1.6-3-.3-7.5-.6-10-.5l-4.6.1-1.6-8.6c-1.9-10.2-6.7-20.5-10.8-23.4a17.9 17.9 0 00-6.4-2.7c-9-1.4-12.1 2.9-11.4 16.2.5 8.6 3.5 16.3 8.5 21.7 1.4 1.4 2.2 3.1 1.9 3.7-.4.5-3.2 2-6.4 3.2-7.6 3-21.7 3-41 0-15.4-2.3-21.6-2-28.3 1.5-3.1 1.5-3.6 1.5-12.1-1.1a50.6 50.6 0 00-34.3 1.5c-5.5 1.7-12.7 3.4-15.9 3.7l-5.9.6.7-2.9zm64.1-15.9c2.3-2.2 2.5-3.1 2.5-12.9v-10.4l-3.1-2.7-3.2-2.6-22.4.3c-27.8.4-26.3-.5-26.3 15.8 0 15.6-1.1 15 27.7 15h22.4l2.4-2.5zM376 206.7c-5.3-11.2-6.5-27.2-2.6-33.2 3.6-5.5 11.4-4.8 13.6 1.1 2.4 6.1.7 20.1-3.4 29.7-.9 2-1.4 3.7-1.1 3.7 1.3 0 5.3-10.9 6.5-17.5 2.3-13-1.5-22.5-9-22.5-3.7 0-7.6 3.3-9.1 7.7-2 6.1-1.3 17.3 1.6 26 2.2 6.5 4.8 11.3 6.1 11.3.2 0-1-2.8-2.6-6.3z"/><path d="M185 297.3c-4.4-1.7-5-3.3-5-13.5 0-14.5-1.3-13.8 26.5-13.8 27.7 0 26.5-.6 26.5 13.4 0 14.6 1 14.1-25.2 14.3-11.7.1-22-.1-22.8-.4zM393.3 310.8c-4-.8-4.3-1.2-4.3-4.1 0-5.5-2-10.6-4.7-12.5-1.7-1-5.5-1.9-10-2.2l-7.2-.5 1.8-4c1.5-3.4 2.6-4.3 7.1-5.9 3-1.1 7.1-3.7 9.6-6.1 3.9-3.7 4.4-4.7 4.4-8.6 0-5.5-.8-6.7-5.2-8.3l-3.6-1.2 4-3.4c3-2.5 5.6-3.6 9.7-4.2 8.6-1.3 15.8-5.2 18.1-9.8 1.1-2.2 2-5.1 2-6.6 0-2.5.1-2.6 1.8-1.2.9.9 3.7 2.6 6.2 3.8 6.1 3 8 4.9 8 7.7s-3.2 4.3-9 4.3c-6.3 0-10.9 2.4-11 5.6 0 .6 1.9 3.5 4.2 6.4 4.7 5.9 4.1 7.4-2.7 6.2a66 66 0 00-9.5-.7c-4.9 0-5.5.2-5.8 2.3-.2 1.6 1.2 3.9 5.2 8 3.1 3.3 5.6 6.6 5.6 7.5 0 2.5-3.3 3.7-10.3 3.7-4.9 0-6.8.4-8 1.8-3.2 3.5-2.1 6.2 4.9 12.7 4.6 4.3 6.5 6.7 6.2 8.1-.4 2.3-1.9 2.5-7.5 1.2z"/><path d="M372.5 308.3c-3.7-.8-12-3.6-16.5-5.5l-4.5-2 4.5-2.3c2.5-1.2 7.7-3 11.7-4 11.5-2.8 17.6-.6 19.3 7 1.5 6.6.8 7.5-6.3 7.4-3.4-.1-7.1-.3-8.2-.6zM310 301.3c-10.2-11.6-12.3-33.7-3.5-35.9 9.3-2.3 17.5 7.6 21.1 25.4.9 4.6 1.4 8.4 1.3 8.5l-6.4 2.3-7.6 2.8c-1.1.5-2.6-.4-4.9-3.1zM360 290.7c0-4.6 1.1-5.6 6.3-5.7 3.3 0-.1 6.7-4.5 9.1-1.6.9-1.8.5-1.8-3.4zM136 270.5c-1.7-2-.7-6.4 2.5-11 2.4-3.7 3.2-7.9 1.7-10.1-1.3-1.9-5.6-2.4-11.4-1.3-4.5.9-6.1.9-7.3-.1-1.9-1.6-.7-3.9 5.1-10.2 2.8-3 4.4-5.6 4.4-7.3 0-2.8-.2-2.8-7.6-2.5-3.6.1-5.6-.3-6.7-1.4-1.7-1.8-1.7-1.8 2-11.8 2.5-6.4 2.5-6.8.9-9.3-2.3-3.5-6.7-3.3-12.8.6-7.8 5-9.1 3.2-6.2-8.6 1.8-7.1 1.3-10.9-1.5-12.5-1.5-.7-3.2-.3-7.5 2l-5.5 3-1.9-2.1a26.2 26.2 0 01-3.7-5.9c-1.7-3.9-1.7-3.9.8-8.2 1.4-2.4 4.9-7 7.8-10.3a76.7 76.7 0 0019.4-42.3c2.5-16.6 4.6-21.2 10.8-23.7 3.7-1.5 4.4-1.5 10.7.4a67 67 0 0112.7 6c5.4 3.6 6 4.5 7.3 9.3 1.6 6.4 3.9 12.2 4.6 11.5.3-.2-.7-4-2.2-8.3-3.1-9.4-2.9-15.8.6-18.6 5-4.1 9-.6 9 7.8 0 5-1 8.6-4.5 16.9-1.3 3.1-1.4 3.7-.3 2.7 3.2-2.6 3.6 1.5 1.3 12.7-.9 4-1.4 7.9-1.2 8.5.2.6 1.1-2.2 2-6.2 2.1-9 4.2-13.6 7.5-16.2 3-2.4 7.7-2.6 8.6-.4 2 5.1-2 12.1-11.8 21-3.6 3.3-5.2 5.3-4 5 2.9-.9 3.7 2.3 1.8 7.6-.8 2.2-1.3 6.1-1.3 8.7l.1 4.6.9-6c1.1-7.6 4.7-15 9.6-19.6 5-4.8 7.6-5.6 10.2-3 4.8 4.8 1.8 10.9-11.7 24-7.9 7.6-9.1 9.7-1.5 2.7 2.7-2.4 3.5-2.7 4.7-1.6 1.4 1.1 1.1 1.7-1.9 5.3a29 29 0 00-6.4 17.1c.1 2.2.5 1.2 1.5-3.1 1.4-6.6 3.1-10 7.3-14.6 3.6-4 5.7-5 8-3.8 4.9 2.7 2.4 11.9-6 21.8-6.4 7.6-8.3 7.4-17.3-2.3-7.8-8.2-12.9-11-17.5-9.2-3.2 1.2-4.1 2.5-4.1 6.4 0 4.1 4.9 8.5 11.9 10.9 6.4 2.1 6.8 4 .7 3.1-10.4-1.6-13.8 4.9-7.1 13.7l3.5 4.6v26.3c0 19.2-.3 26.7-1.2 27.6-1.7 1.7-6.3 1.5-7.8-.3zm21.5-97.5a45.8 45.8 0 01-18.5-13.1c-4.8-6.7-3.8-12.9 2-12.9 3.6 0 7.9 4.9 12.9 14.5 2.3 4.4 3.9 6.9 3.5 5.5a59.2 59.2 0 00-10.1-18.2c-4.3-4.1-7.7-4.5-10.7-1.4-1.5 1.4-2.6 3.3-2.6 4.2 0 3.4 4.2 10.4 8.3 14 5.5 4.7 17 10.4 15.2 7.4zm-2.5-27.5a16 16 0 00-4-2.5c-12.6-6.4-19.6-21-10-21 3.7 0 9.3 6.4 11.7 13.4 1 2.9 1.9 4.4 2.1 3.4.8-4.1-6.8-16.1-11.5-17.9-3-1.1-6.9.4-7.8 3.1-1.1 3.6 2.2 10.6 7.1 14.9 5.3 4.6 12.4 8.4 12.4 6.6zM360 258c0-3.2.5-5.2 1.3-5.4.6-.3 6.6-.7 13.2-1l12-.5-4 3.4a18 18 0 01-8 4.1c-2.2.3-6.2 1.5-9 2.5a62 62 0 01-5.2 1.9c-.2 0-.3-2.3-.3-5zM412.2 227.5c-2.6-2.7-9.2-4.1-14.2-3-2.5.5-3.1.4-2.8-.6.6-1.9 4.7-3.9 7.9-3.9 3.8 0 11.9-2.9 16.4-6l4-2.6 5.2 2.2c2.8 1.3 5.4 2.8 5.9 3.5 1.2 1.9-3.9 5.5-10.3 7.4-3.2.9-6.7 2.5-7.8 3.5-2 1.8-2.1 1.8-4.3-.5z"/><path d="M146 218.7c0-10.3 2.5-16 8.6-19.4 3.8-2.2 4.8-2.3 31.2-2.3h27.3l5.2 3.9a53 53 0 0034.2 11.5 53 53 0 0034.2-11.5l5.2-3.9h27.3c15 0 27.9.4 28.6.9 1.1.7.9 1.7-1 5.2-2 3.8-2.3 5.8-2.3 14.2l.1 9.7H146v-8.3z"/><path d="M141.1 209.6c-3.9-6.2-2-9.6 5.2-9.6h3.4l-2.3 4.7a22 22 0 00-2.4 6.5c0 2.8-1.6 2.2-3.9-1.6zM238.1 209.4a59 59 0 01-33.8-27 55.9 55.9 0 01-4.8-38.2 55.7 55.7 0 0145.4-41.4 54.8 54.8 0 0162 53.7 55.1 55.1 0 01-40.4 53 71.5 71.5 0 01-28.4-.1zm28.6-46.6c13.9-14.1 21.4-22.3 21.9-24.1.9-4-2.2-8.1-6.6-8.5-3-.3-4.5.9-21.6 17.9L242 166.4l-6.9-6.8c-5.6-5.5-7.6-6.9-10-6.9-4.3 0-7.1 2.8-7.1 7.2 0 3.2 1.1 4.6 10.4 13.8 9 8.9 10.8 10.3 13.7 10.3 3 0 5.4-2.1 24.6-21.2zM420.2 198c-4.6-2.5-4.7-2.6-2.8-5.5 3.3-5 9.2-2.1 8.4 4.2-.4 3.3-1.4 3.5-5.6 1.3zM148.5 194.4c-9.4-3.7-13.8-9.9-9.9-13.8 3.7-3.8 9.4-1.4 17.9 7.5l6 6.3-3 1.2c-3.8 1.7-3.9 1.7-11-1.2zM173 194.4c0-.4 1.6-2.4 3.5-4.6 2-2.1 4.1-5 4.7-6.4 1.5-3.3 2.6-3 3.4 1.1.9 4.8-3.5 10.3-8.3 10.4-1.8.1-3.3-.2-3.3-.5zM185.2 190.5c2.6-2.5 5.4-4.5 6.2-4.5 2.3 0 7.6 5 7.6 7.1 0 1.7-.8 1.9-9.2 1.9h-9.3l4.7-4.5z"/><path d="M200.4 192.5c-.3-1.4-2-3.7-3.7-5.1-2.5-2.1-3.7-2.5-6.8-2-3.6.6-3.8.4-4.5-2.7-.4-1.7-.7-5.3-.5-7.9.3-6.3-2.4-9.3-7.5-8.3-5 .9-5.2-1.3-.4-6.3 7.1-7.5 8.9-13.6 5.6-18.6-2.9-4.5-7-3.6-13.3 2.9-2.9 3-5.6 5.5-5.8 5.5-1.6 0 .1-3.1 3.5-6.5 2.2-2.2 5.2-5.7 6.7-7.8l2.6-3.8 12.1.7 12.4.9c.2.2-.7 3.5-1.9 7.5a44.7 44.7 0 00-1.7 18.3 47.1 47.1 0 009.4 29.3l4.4 6.4h-5c-4.5 0-5-.3-5.6-2.5zM297.4 190.1a55.8 55.8 0 004.5-59 76.7 76.7 0 00-4.5-7.8c-1.5-2.2-1.5-2.3.2-2.3 2.9.1 12.5 4.3 17.4 7.7 5.2 3.6 24.2 20.5 23.6 21-.2.2-2.2-.4-4.5-1.3-7.6-3-9.4.7-4.1 8.6 5 7.5 3.7 10.4-3 7-4.8-2.4-9.3-2.3-9.8.2-.2.9 1.5 4.3 3.6 7.6 3.7 5.4 4.6 7.7 4.3 11-.1 1.7-2.6 1.5-6.7-.7-6.8-3.7-8.5 0-3.4 7.4 1.7 2.4 3 4.6 3 4.9 0 .3-5.4.6-12.1.6h-12.1l3.6-4.9z"/><path d="M316.6 189.3c-2-3.2-3.6-6.1-3.6-6.5 0-1.3 2.4-.9 6.4 1.2 3 1.5 4.3 1.7 5.9.9 2.8-1.6 1.7-6.4-3.2-14-5.4-8.3-4.3-9.9 4.3-5.8 2.4 1.2 5.1 1.9 6 1.6 2.2-.9 2-5.6-.5-9.2-2.6-3.9-4.1-7.4-3.4-8.5.3-.5 2.5-.2 4.9.7 2.4.9 5 1.3 5.9 1 3-1.1 3.1-5.3.3-10.6-1.4-2.8-2.2-5.2-1.7-5.5.4-.3 2.4 0 4.3.6 5.1 1.5 6.8.6 6.8-3.7 0-4.6 1.5-7.5 4-7.5 2.3 0 3.3 2.8 2.5 7.2-.7 4.4.3 5.7 5.6 6.6 6.2 1.1 6.2 3.2-.1 7.1-6.2 3.8-6.4 6.2-.5 7.4 7.2 1.5 9 2.2 9 3.7 0 .9-1.9 1.9-5.3 2.6-8.2 1.9-11.3 5.7-18.7 23.4-1.5 3.6-4.1 8-5.8 9.8-3 3.1-3.3 3.2-11.3 3.2h-8.2l-3.6-5.7zM78.8 165.3c-4.5-10.3-1.8-20 7.7-27.8 4.8-3.9 18-10.4 19-9.3.9.8-2.6 11.1-6.1 17.9a127.2 127.2 0 01-18 23.9 15 15 0 01-2.6-4.7z"/><path d="M370.9 154.9c-1-1.4-3.4-2.4-7.4-3.2-3.3-.7-5.9-1.6-5.9-2.2.1-.5 2.2-2.3 4.7-3.8 4.4-2.7 4.8-2.8 17.8-2.5l13.2.3-8.4 5.6c-12.2 8.2-12.4 8.3-14 5.8zM376.1 141.3c-5.1-.3-7.8-.9-8.5-1.9-.6-.8-2.3-2-3.6-2.7-2.1-1-2.5-2.1-2.8-6.2-.3-6.3 1.5-9.9 5.1-10.3 1.6-.2 3.5.2 4.2.8 1.2 1 1.7.7 2.5-1.6 1.4-3.6 5.8-8.3 8.8-9.5 1.7-.7 3.2-.4 5.2.8 2.7 1.5 3.1 1.5 4.7.1 2.5-2.2 7-3 9.3-1.8 1.2.6 2.5 2.9 3.1 5.6.9 3.3 1.6 4.4 2.6 4 5-1.9 6.3-1.8 9.3 1.2 2.2 2.2 3 4 3 6.5 0 3.1.3 3.4 3.1 3.5 4.9.1 7.9 2.7 7.9 6.7 0 3.9-1.5 5-7 5.4-2.5.1-4.5-.5-6.4-2-3.6-2.8-9.7-2.8-16.1 0-4.8 2.1-6.2 2.2-24.4 1.4zM185.5 131.3c-7.8-.7-8.5-1-8.5-4.7s-2.1-6.6-4.8-6.6c-2.3 0-8.1 3.7-8.8 5.5-1 2.5-2.3 1.7-2.9-1.9-.4-1.9-.2-4.3.4-5.5 1.1-2.1 1.8-2.1 26.6-2.1 14 0 25.5.4 25.5.8 0 .5-1 1.7-2.1 2.8-1.2 1-3.7 4.3-5.6 7.2l-3.4 5.2-6.2-.2-10.2-.5zM103.1 113.7c-4.5-2.2-4.7-9.1-.4-12.9 1.8-1.7 11.3-4.1 12.2-3.2.2.2-.4 1.3-1.4 2.4a32 32 0 00-3.9 8.1 20.6 20.6 0 01-3.1 6.6c-.6.1-2.1-.3-3.4-1zM163.2 107.6c.2-9-1.6-12.6-6.3-12.6-3.6 0-7.9 4.2-7.9 7.6 0 3.1-.9 3-6.7-.6-5.5-3.4-15.1-7-18.8-7-1.8 0-2.5-.5-2.5-2 0-3.9 2.9-9 6.2-11 4-2.4 12.2-2.7 17.3-.6 3.4 1.4 3.5 1.4 3.5-.7 0-1.2.5-3.9 1.1-6 2.1-7.8 12.6-10.1 22.6-5l5.3 2.6 4.6-2.2c4.1-2.1 5-2.2 9.2-1.1 2.6.6 6.1 2 7.9 3.1 4.1 2.6 9.1 8.3 9.9 11.4.7 2.9 1 2.9 4.4 1 8.5-4.9 18 2.1 18 13.2 0 6.1-.7 7-10.5 13.4l-6 3.9h-51.4l.1-7.4zM272.5 104.7c-2.7-1.2-5.2-2.2-5.4-2.4-.2-.1.2-1.6.9-3.2 1.4-3.4 5.4-5.6 12.2-6.5 4.6-.7 4.7-.8 3.6-3.2-1-2.2-.8-2.9 2-5.7 3.1-3.1 3.6-3.2 12.3-3.4 8-.2 9.3-.5 12-2.8 5.9-4.9 18.4-2.4 21.4 4.3.8 1.9 1.8 2.2 6 2.2 9.7 0 20.5 10.2 20.5 19.2v3.8l-40.2-.1c-38.7-.1-40.5-.2-45.3-2.2z"/></g><g fill="#f90"><path d="M393.3 310.7c-4.1-.9-4.3-1.1-4.3-4.9 0-5.1-2.3-10.3-5.2-12-1.2-.7-5.5-1.5-9.5-1.8l-7.2-.5 1.9-4.2c1-2.4 2.6-4.3 3.3-4.3 2.4 0 12.7-5.8 14.7-8.2 5.3-6.4 4.6-13.7-1.6-16-2.6-.9-3.1-1.5-2.2-2.5 2.7-3.3 7.4-5.6 14.1-7 11.7-2.4 17.7-7.6 17.7-15.2v-3.4l2.3 2.1c1.2 1.1 4.2 2.9 6.7 4s5.1 2.6 5.8 3.5c3.2 3.9-1 7.7-8.6 7.7-5.2 0-10.2 2.4-10.2 4.8 0 1 1.8 4.3 4.1 7.3l4 5.4-3.3.3c-1.8.2-5.9-.1-9-.8-6.5-1.2-9.8-.2-9.8 3a24 24 0 005.5 8c8.8 9.5 8.1 10.3-9.2 10.9-3 .1-5.3 2.7-5.3 6.1 0 2.2 1.3 4 5.9 8 6.3 5.5 7.4 7.1 6.5 9.5-.7 1.7-1.1 1.7-7.1.2zM135.8 269.5c-.8-1.9-.8-3.1.1-5.1 1.4-3.1 3.1-2.2 5.1 2.7.7 1.6 1.4 2.8 1.7 2.6.2-.2-.6-2.6-1.7-5.3-1.7-3.8-1.9-5.3-1.1-7.2 3.7-8.1-1.1-12-11.4-9.3-4.8 1.2-7.5.6-7.5-1.8 0-2 6.9-10.5 7.9-9.6l1.8 3.8c1 2.8 1.1 2.2.6-4.3-.3-4.1-1-8.1-1.6-8.8-.5-.7-1.6-3.8-2.3-7l-1.3-5.7.6 6.3.6 6.2h-5.7c-5.3 0-5.6-.1-5.6-2.5 0-1.3 1.2-5.3 2.6-8.9 3.1-7.5 2.7-11.1-1.4-12.7-2.3-1-3.6-.6-9.5 2.6-8.6 4.6-9.7 4-7.8-4.3 2.5-10.5 2.5-13.5.1-15.7-2.1-1.9-2.2-1.9-7.5.9-2.9 1.6-5.9 2.6-6.8 2.3-.8-.3-2.6-2.6-4-5.2-2.4-4.3-2.5-4.9-1.3-7.8.7-1.8 4.6-7 8.5-11.7a74.4 74.4 0 0019.7-42.5c2.9-18.8 6.3-24.5 14.5-24.5a43 43 0 0119.8 7.1c4.9 3.2 5.2 3.8 7.6 11.6 1.4 4.5 3 8.5 3.7 8.9.7.5.9.1.5-1.2-2.6-8.1-4.7-16.2-4.7-18.1 0-3.4 2-7 4.6-8.2 3-1.3 4.8-.6 6.3 2.5 2.2 4.9 1.1 12.6-3.4 22.9-1.5 3.3-1.5 3.7-.1 2.6 2.6-2.1 3 2.9 1.1 12.5-2.1 10.8-1.3 12.1 1.1 1.8 3-12.6 9.2-19.9 14.3-16.7 4.5 2.8 1.3 10.2-8.8 20.2-4.8 4.7-6.6 7.1-5.1 6.6 2.2-.7 2.3-.6 1.6 4.1-.4 2.7-.9 7.6-1.1 10.9l-.4 6 1-5.5c2.5-13.9 12.9-27.2 18.9-24 2.4 1.3 3.5 5 2.6 8.6-.4 1.5-5.5 7.5-11.3 13.5-10.6 10.9-13.2 14.5-4.8 6.8 3.7-3.5 4.7-3.9 6-2.9 1.3 1.1 1.1 1.8-1.9 5.1-3.6 4-6.7 12.1-6.5 17.3.1 2.3.5 1.3 1.8-3.4 2-7.8 5.1-13.1 9.7-16.7 3.3-2.5 3.5-2.5 5.4-.8 4.3 3.9 1.8 12.1-6.5 21.3-6.5 7.2-9 7.1-14.6-.4a36.1 36.1 0 00-15.4-12c-3.2-.8-7.4 1.3-8.5 4.2-1.9 4.8 1.2 8.9 9.6 13 4.1 1.9 7.4 3.7 7.4 3.8 0 .2-2.7.3-6.1.2-5.3-.1-6.3.2-8 2.3-2.6 3.2-1.9 6.2 2.7 11.8l3.4 4.1v25.4c0 21.3-.2 25.7-1.6 27.6-2.1 3.1-6.1 2.9-7.6-.3zm-10.5-67.6c-.4-.4-.6 1.8-.3 4.9l.5 5.7.3-4.9c.2-2.7 0-5.2-.5-5.7zm-.6-13.1c-.3-.8-.6-.5-.6.6-.1 1.1.2 1.7.5 1.3.3-.3.4-1.2.1-1.9zm0-7c-.3-.8-.6-.5-.6.6-.1 1.1.2 1.7.5 1.3.3-.3.4-1.2.1-1.9zm0-11c-.3-.7-.5-.2-.5 1.2s.2 1.9.5 1.3c.2-.7.2-1.9 0-2.5zm32.8 2.2c-.3-.5-1.2-1-1.9-1-2.9 0-13.6-8.2-16.5-12.7-4.6-6.9-3.9-12.3 1.5-12.3 3.7 0 7.9 4.5 12.4 13.5 4.6 9 6.3 10.7 3.3 3.4-6.2-15.6-14.6-22.6-20.3-16.9-5.5 5.5 1.2 16.9 14 23.9 5.5 3.1 8.6 3.9 7.5 2.1zm-32.8-9.7c-.4-.3-.7 0-.7.7s.3 1 .7.7c.3-.4.3-1 0-1.4zm1-13c-.2-2.1-.4-.4-.4 3.7 0 4.1.2 5.8.4 3.8a47 47 0 000-7.5zm27.9-5.6c-9.1-5.8-11.2-7.6-13.7-11-3-4.2-3.7-8.5-1.7-10.5 3.4-3.4 8.6.5 13.3 10.1 1.9 4 3.5 6.3 3.5 5.2 0-6.1-9.4-18.5-14-18.5-2.6 0-6 3.4-6 5.9 0 3.4 2 7.5 5.3 11 3.8 4 11.5 9.1 13.6 9 1.3 0 1.2-.3-.3-1.2zM411.7 226.6c-1.9-1.4-4.7-2.1-9.2-2.4-3.6-.2-6.5-.8-6.5-1.3 0-1.2.5-1.3 10.3-3.4 5.1-1.1 9.4-2.7 12.5-4.9l4.9-3.2 5.1 2.5c7.9 3.8 6.5 7.4-3.8 10.1-2.5.6-5.9 2-7.5 2.9-3 1.7-3.2 1.7-5.8-.3z"/><path d="M149.4 194.4c-10.7-4.3-14.7-9.2-10.9-13.4 2.3-2.5 4.5-2.5 9.3-.1a57.4 57.4 0 0114.1 13.5c-.2.2-1.8.8-3.5 1.4-2.6.8-4.1.6-9-1.4z"/></g><g fill="#1a1a2c"><path d="M155.5 312.6c-3.3-1.5-8-5.5-13.7-11.4-11.8-12.3-20.4-16.2-35.4-16.2-5.3 0-5.4-.1-5.4-2.9 0-4.3-5.1-8.8-15.5-13.6-5-2.3-9.6-5-10.4-5.9-2.2-2.6.9-5.2 6.9-5.9 6.8-.8 9-2.2 9-5.5 0-4.4-2.7-7.1-10.5-10.7-7-3.2-11.4-7.2-10.1-9.4.4-.5 2.1-1.3 3.9-1.6 1.7-.4 4.4-1.4 6-2.1 5.9-3.1 1.5-11.9-8.5-17-2.7-1.4-5.1-3.1-5.5-4-.8-2.1 1.3-4.2 5-5 7.4-1.5 7.5-4.9.2-13.4-6.1-7.2-6.7-9.5-3-11.2 4.3-2 7.4 0 11.4 7.2 4.3 7.7 6.4 8.4 12.2 4.5 7.5-4.9 9.3-1.9 6.4 11.2-.9 4.1-1.4 8.1-1.1 8.9.9 2.3 5.4 1.6 11.6-1.8 4.8-2.7 6.3-3.1 7.7-2.2 2.7 1.7 2.7 4.6-.1 11.3-4.6 10.7-3.4 13.1 6 13.1 3.5 0 6.5.4 6.8.9.4.5-1.3 3.3-3.6 6.1-6.9 8.4-7.1 8.8-6.4 11.6l.7 2.7 8.8-.7c7.5-.6 9-.5 10.1 1 1.3 1.4.9 2.5-2.5 8.9-3.4 6.5-3.8 7.6-2.7 9.9 2 4.4 5 5.1 13.1 3.1 5.7-1.4 7.4-1.5 8.6-.5 2.4 2 1.7 6.2-2 12-4.6 7.1-5.1 9.4-3 12.6 1.6 2.5 2 2.6 7.6 2 5-.6 6.1-.4 7.9 1.4 2.4 2.4 2.4 2.7.4 9.6-1.8 6.4-3.1 6.7-10.9 3z"/><path d="M167.5 312.8a55 55 0 001.2-7.3c.7-7-1.2-8.6-10.4-8.8-6.6-.2-6.8-.3-7.1-2.8-.2-1.8 1.1-4.8 3.7-8.9 6.5-10 5.1-15.4-3.8-14.8l-4.6.2-.3-6.9c-.2-3.8 0-8 .3-9.2l.5-2.3h169.8l1.7 4.3c2.5 6.2 10.3 19.1 15.9 26 4.8 6 4.8 6 3.6 10.1-1.5 5.2-2.7 6.6-5.4 6.6-2 0-2.4-.8-3.5-7.6-2.6-15.5-8.5-25.1-16.8-27.3-8.7-2.4-12.3 1.6-12.3 13.6 0 9.7 1.9 15.7 7.4 23.2l3.7 5-3.3 1.4c-11.8 4.9-19.1 5.2-43.2 1.7-14-2-16.7-2.2-22-1.1-3.4.7-7.2 1.9-8.4 2.8-2.2 1.3-3.1 1.2-10.9-1.2-11.2-3.6-19.9-3.1-37.2 1.9-6.9 2-14 3.6-15.9 3.6-3.1 0-3.4-.2-2.7-2.2zm63.9-15.9c2.5-2 2.6-2.4 2.6-13s-.1-11.1-2.6-13.4c-2.7-2.5-2.7-2.5-25-2.5-22.1 0-22.3 0-25.1 2.4-2.7 2.4-2.8 2.7-2.8 12.9 0 9.8.2 10.7 2.4 13.1l2.4 2.6H206c21.5 0 22.9-.1 25.4-2.1zM342 299.1c-4.9-.7-5.2-1.3-2.5-7.8 1.2-2.8 1.9-3.3 4.7-3.3 1.8 0 5.7-.3 8.6-.6l5.2-.7v4.6c0 4.2-.2 4.6-4 6.6-4.2 2.2-4.5 2.2-12 1.2zM344.9 284.6c1.2-1.4 1.2-1.6-.3-1-2.5 1-2-.3 2.8-6.5a40 40 0 0130.7-16.9c7.1-.4 7.7-.3 9.3 1.9 2.2 3.2 2 6-.6 9.9-4.5 6.5-19.6 12.3-35.8 13.7-7 .6-7.4.5-6.1-1.1zm7.1-5.2c0-.2-.9 0-2 .6s-2 1.3-2 1.6c0 .2.9 0 2-.6s2-1.3 2-1.6z"/><path d="M334.7 279.8c-9.5-11.8-15.7-24.2-15.7-31.4 0-6.8 2.3-9.8 7.5-9.8 3 0 4.4.7 7.1 3.6 4.9 5.4 6.8 12.9 6.7 26.8 0 17.5-.1 17.6-5.6 10.8zm4-2c-.3-.8-.6-.5-.6.6-.1 1.1.2 1.7.5 1.3.3-.3.4-1.2.1-1.9zm-1-3.5c-.4-.3-.7 0-.7.7s.3 1 .7.7c.3-.4.3-1 0-1.4zm-1-3.5c-.3-.8-.6-.5-.6.6-.1 1.1.2 1.7.5 1.3.3-.3.4-1.2.1-1.9zM342.7 268.8c-.4-5.7-.9-11.8-1.3-13.6l-.6-3.2h6c7.4 0 9.3.6 8.5 2.8-.4 1.3-.2 1.2 1-.3 1.5-1.9 1.6-1.7 1.7 3.9 0 5.7-.1 6-4.2 9.5-6.5 5.7-6.9 5.6-4.2-.6 1.4-3.2 2.1-5.3 1.5-4.8-.5.6-2.4 4.4-4.2 8.5-1.7 4.1-3.2 7.6-3.4 7.8-.1.1-.5-4.4-.8-10zM135.8 269.5c-.8-1.9-.8-3.1.1-5.1 1.4-3.1 3.1-2.2 5.1 2.7.7 1.6 1.4 2.8 1.7 2.6.2-.2-.6-2.6-1.7-5.3-1.7-3.8-1.9-5.3-1.1-7.2 3.7-8.1-1.1-12-11.4-9.3-4.8 1.2-7.5.6-7.5-1.8 0-2 6.9-10.5 7.9-9.6l1.8 3.8c1 2.8 1.1 2.2.6-4.3-.3-4.1-1-8.1-1.6-8.8-.5-.7-1.6-3.8-2.3-7l-1.3-5.7.6 6.3.6 6.2h-5.7c-5.3 0-5.6-.1-5.6-2.5 0-1.3 1.2-5.3 2.6-8.9 3.1-7.5 2.7-11.1-1.4-12.7-2.3-1-3.6-.6-9.5 2.6-8.6 4.6-9.7 4-7.8-4.3 2.5-10.5 2.5-13.5.1-15.7-2.1-1.9-2.2-1.9-7.5.9-2.9 1.6-5.9 2.6-6.8 2.3-.8-.3-2.6-2.6-4-5.2-2.4-4.3-2.5-4.9-1.3-7.8.7-1.8 4.6-7 8.5-11.7a74.4 74.4 0 0019.7-42.5c2.9-18.8 6.3-24.5 14.5-24.5 5.2 0 13.4 3 19.7 7.1 4.9 3.2 5.1 3.5 8.6 14.1 2 5.9 3.6 12 3.6 13.5 0 2.6-.2 2.6-2.9-1.8-3.4-5.4-8.5-9.9-11.2-9.9-2.5 0-5.9 3.5-5.9 6 0 5.8 7.4 14.6 15.9 18.9 2.5 1.3 4.2 3 4.5 4.4.9 4.4 1.7 12.7 1.1 12.7-.2 0-1.8-2.4-3.5-5.2-3.7-6.5-4.9-7.9-8-10.1-3.3-2.3-6.6-2.1-9 .3-5.9 5.9 2.5 18.6 16.6 25.2 4.4 2 6.6 3.7 6.9 5.1 3.3 14.8 3.3 14.8-2.2 8.9-9-9.4-17.9-11.5-21.1-4.9-1.1 2.3-1.1 3.2.4 6.2 1.3 2.8 3.1 4.3 9 7.1 4.1 1.9 7.4 3.7 7.4 3.8 0 .2-2.7.3-6.1.2-5.3-.1-6.3.2-8 2.3-2.6 3.2-1.9 6.2 2.7 11.8l3.4 4.1v25.4c0 21.3-.2 25.7-1.6 27.6-2.1 3.1-6.1 2.9-7.6-.3zm-10.5-67.6c-.4-.4-.6 1.8-.3 4.9l.5 5.7.3-4.9c.2-2.7 0-5.2-.5-5.7zm-.6-13.1c-.3-.8-.6-.5-.6.6-.1 1.1.2 1.7.5 1.3.3-.3.4-1.2.1-1.9zm0-7c-.3-.8-.6-.5-.6.6-.1 1.1.2 1.7.5 1.3.3-.3.4-1.2.1-1.9zm0-11c-.3-.7-.5-.2-.5 1.2s.2 1.9.5 1.3c.2-.7.2-1.9 0-2.5zm0-7.5c-.4-.3-.7 0-.7.7s.3 1 .7.7c.3-.4.3-1 0-1.4zm1-13c-.2-2.1-.4-.4-.4 3.7 0 4.1.2 5.8.4 3.8a47 47 0 000-7.5zM362.4 249.4c4.8-1.7 6.1-2.8 2.2-1.8-2.6.6-2.7.5-1.7-1.4 1.5-2.9 9.8-10 15.6-13.3 11.4-6.7 26.6-8.9 31.9-4.8 5.5 4.3 2.4 13.4-6 17.4a114 114 0 01-33.4 4.8c-11.7.5-12.3.5-8.6-.9zM355.4 246.9a58.1 58.1 0 01-9.4-30.8c0-11.2 3.3-17.1 9.6-17.1 6.5 0 10.2 7.4 8.9 18.4-.8 7.4-5.2 24.8-6.4 25.5-.5.3-1.1 1.7-1.2 3-.3 2-.6 2.2-1.5 1z"/><path d="M362.4 240.5c-.3-.8.4-5.8 1.7-11.2 4.9-21.3 1.5-32.5-9.7-32.3-2.2 0-6.5-.5-9.7-1.3l-5.8-1.3 2.4-2.2A61 61 0 00348 180c5.7-13.4 8.8-17.6 14.2-19.1 11.1-3 14.5-4.5 23.1-10.1 11.5-7.6 20.2-11.8 24.5-11.8 4.7 0 9.2 4.6 9.2 9.4 0 3-.5 3.7-3.5 5.2-6.7 3.1-11.4 11-16.6 27.4a77.8 77.8 0 01-5.2 13.5l-1.9 3 2.4-2.6a15 15 0 015.8-3.8c1.9-.6 5.9-2.4 8.8-4.1 6.1-3.3 6.8-2.8 5.8 4.4-.7 4.2-.8 4.4-4.8 5-5.3.9-14.5 5.8-20.6 11-8.1 6.9-8.2 7-8.2 5.8 0-.6 2.1-3.7 4.7-6.9 6-7.5 7.4-9.7 3.3-5.3-1.8 1.9-3 2.8-2.7 1.9a68 68 0 003.2-23.4c-1.5-12.6-12.6-15.7-18.2-5.2-3.8 7.2-1 27.9 5.1 36.8 2.4 3.5 2.4 3.6.6 6.4-1 1.6-1.7 3.2-1.4 3.7.3.4 4.5.8 9.5.8 9.2 0 11.3 1.1 6.2 3.1a88.2 88.2 0 00-27.9 16.9c-.3 0-.7-.7-1-1.5zm3.4-3.7c1.2-2.1 1.9-3.8 1.7-3.8-.7 0-4.5 6.3-4.5 7.4 0 1.2.1 1 2.8-3.6zm4.7-7.8c.3-.5.4-1 .1-1-.3 0-.8.5-1.1 1-.3.6-.4 1-.1 1 .3 0 .8-.4 1.1-1z"/><path d="M380.5 219.3c.6-.4 1-1.3 1-1.9 0-2 14.7-13.6 21-16.5 15.6-7.4 28.4 1.4 16.5 11.4-4.9 4.2-14.9 6.8-28 7.3-6.3.3-11 .2-10.5-.3zm4.2-2c-.4-.3-1-.3-1.4 0-.3.4 0 .7.7.7s1-.3.7-.7zm3-1c-.4-.3-1-.3-1.4 0-.3.4 0 .7.7.7s1-.3.7-.7zM376.7 208.3c-5.3-10.5-7-27.5-3.4-34 3.1-5.9 10.8-5.7 13.3.2a38 38 0 01-.1 20.4c-1.6 6.3-6.3 16.1-7.5 16.1-.5 0-1.6-1.2-2.3-2.7zm4-4c-.4-.3-.7 0-.7.7s.3 1 .7.7c.3-.4.3-1 0-1.4zM399.6 187.5a70.7 70.7 0 016.8-21.3c5.4-10.6 14.7-15.1 20.9-10.2 7.7 6.1-2.6 21-21.1 30.4-6 3.1-5.8 3-6.6 1.1zm1.9-1.5c.3-.5.4-1 .1-1-.3 0-.8.5-1.1 1-.3.6-.4 1-.1 1 .3 0 .8-.4 1.1-1zm3-4c.3-.5.4-1 .1-1-.3 0-.8.5-1.1 1-.3.6-.4 1-.1 1 .3 0 .8-.4 1.1-1zm3-3c.3-.5.4-1 .1-1-.3 0-.8.5-1.1 1-.3.6-.4 1-.1 1 .3 0 .8-.4 1.1-1z"/></g><g fill="#fff"><path d="M0 204.5V0h500v409H0V204.5zm408.6 123c1.1-2.8-.6-8.3-3.6-11.5-2.4-2.5-2.8-3.7-2.3-6.1.5-2.8 0-3.6-6.1-9.2-9.5-8.9-8.9-11.1 3.1-11.9 12.2-.9 13.5-4.6 4.8-13.7a32 32 0 01-5.5-6.9c0-1.5 5.3-1.5 12.1-.1 5.5 1.2 9.9.1 9.9-2.4 0-.7-1.8-3.8-4-6.7-2.2-2.9-4-5.7-4-6.1 0-1.1 5.9-2.9 9.5-2.9 8.6 0 13.4-4.9 9.8-9.9a23.7 23.7 0 00-7.1-5.2 41 41 0 01-6.9-4.1c-1.4-1.4-1.4-1.7.3-2.2 12.9-4.4 14.9-5.4 16.7-7.7 2.6-3.6 1.3-5.8-5.2-8.8-4.7-2.2-5-2.6-4.5-5.5.3-1.7 1-4.4 1.5-6 1.3-4.3 1.1-7.9-.7-10.5-1.3-1.9-2.4-2.2-5.5-1.9-3.7.3-3.9.2-3.9-2.5 0-2.2 1.3-4 5.4-7.8 6.1-5.6 9.6-11.8 9.6-17 0-4.6-1.6-6.7-6.5-8.3-3.5-1.2-4.1-1.9-4.6-5l-.6-3.6h4.1c5 0 6.2-.7 7.6-4.4 1.9-5.2-.9-10-7-11.6-3.2-.9-3.9-1.5-4.4-4.4-.9-4.9-5.8-8.8-10.4-8.4-3.1.3-3.6 0-4.3-2.5-1.7-6.2-6.6-8.1-12.9-4.9-3.5 1.7-4.2 1.8-6 .5a6.2 6.2 0 00-4.6-.9c-2.9.8-10.1 7-10.9 9.5-.4 1.3-1.3 1.6-3.8 1.3-2.8-.3-3.8.2-6 2.8-2.3 2.7-2.7 4.1-2.7 9.2 0 3.4-.3 5.8-.7 5.4-.4-.3-.6-2.6-.4-5.1.3-5.6-1.2-8.5-4.4-8.5-3.8 0-6.5 3.3-6.5 8.1 0 3.8-.2 4.1-2.2 3.5-6.1-1.7-7.4-1.7-8.8-.1-1.2 1.5-1.2 2.1.4 4.9 2.5 4.2 3.7 7.6 2.8 7.6-.4 0-4.6-3.5-9.4-7.8-12.1-11-18.2-14.9-27.9-18-5.9-1.9-9.9-4-13.2-6.7l-4.8-4 37.8-.5 37.8-.5v-5.7a14 14 0 00-3-9.9 23.8 23.8 0 00-16.6-10.7c-4.3-.4-5.7-1.1-8.1-3.7-3.9-4.5-7.7-5.8-14.8-5.3-4.4.3-6.6 1-8.3 2.6-1.9 1.8-3.5 2.2-9.5 2.2-8.8 0-14.7 2.1-16.8 6.1-.8 1.6-1.3 3.7-1.2 4.6.2 1.3-.7 1.9-3.9 2.4-6.1 1.1-9.8 3.4-11.3 6.9l-1.3 3-7.6-.6c-6.8-.6-13.2.1-21.4 2.1l-2.7.7v-5.6c0-6.2-1.4-9.8-5.3-13.4-2.9-2.8-9.3-3.9-13.6-2.4-2.7.9-3.1.8-4.7-1.6a30.3 30.3 0 00-20.2-13.8c-3.1-.5-4.9-.1-7.9 1.6l-3.9 2.2-4.9-2.6c-8.5-4.6-21.2-3-24.3 3.1-.5 1-1.2 3.4-1.6 5.4l-.6 3.6-5.1-1.3a18.8 18.8 0 00-15.5 2.1 20.2 20.2 0 00-6.4 12.3c0 1.8-.6 2.2-3.3 2.2-5.2 0-13.1 2.7-15.6 5.4-4.8 5.1-2.4 14.7 4 16.1 2.8.6 3.1 1 2.5 3.7l-.6 4.4c0 .8-.6 1.4-1.3 1.4-2.5 0-17.4 7.8-21.1 11-2 1.8-4.9 5.4-6.4 7.9a24 24 0 00-.4 21.6c2.7 5.9 2.3 10.2-.8 8.5a9.9 9.9 0 00-10.5 1.3c-3.4 2.9-2.6 5.2 4.5 13.2 2.8 3.3 4.9 6.5 4.8 7.3-.2.8-2.4 2.1-5 2.9-8.8 2.5-8.3 8 1.1 12.7 5.3 2.7 10.1 7.7 10.1 10.6 0 1.7-2.2 3-8 4.6-8.9 2.4-5.7 9.2 7.1 15.3 5.7 2.8 7.6 4.3 8.4 6.4 1.1 3.2-.3 4.7-4.5 4.7-4.5 0-10 2.1-11.1 4.1-2.4 4.5-.4 6.7 10.4 11.8 15.4 7.3 19.6 13.1 11.2 15.6C77.3 290.6 71 302 76 319c.5 1.9 1.9 5 3 6.8l2 3.2h163.5c144.8 0 163.6-.2 164.1-1.5z"/><path d="M80 321.7c-6.2-13.9-2.2-26.3 10.2-31.8 4.5-1.9 6.9-2.3 16.3-2.2 16.3.1 19.7 1.6 34.6 15.9 9.3 8.9 12.6 11.5 16.1 12.4 7.2 2 19.8.7 33.6-3.4a82 82 0 0117.9-3.6c5.6 0 19.3 3.4 19.3 4.8 0 .4-1.1 2.3-2.4 4.2a27 27 0 00-3 5.8l-.7 2.2h-140l-1.9-4.3zM225 325.2c0-.4 1.3-2.9 2.9-5.4 2-3.2 4.4-5.3 8.2-7.2 6.7-3.3 16-3.5 33.4-.6 21 3.5 26.3 2.8 46.5-5.5 17.8-7.4 23.2-7.3 45.5.5a79.4 79.4 0 0019.5 4.2c13.2 1.3 20.5 3.9 23.1 8.2 1 1.7 1.9 3.9 1.9 4.9 0 1.6-5 1.7-90.5 1.7-49.8 0-90.5-.4-90.5-.8z"/><path d="M168.4 311.7c2-10.6 2-10.4-1-13.2-2.5-2.4-3.5-2.6-8.9-2.3-5.9.3-6 .3-6.3-2.4-.2-1.9.9-4.8 3.4-8.8 4.4-7.2 4.8-11.4 1.3-14.2-1.8-1.5-3.2-1.8-6.1-1.4l-3.8.6v-17h169.7l1.7 4.4c2 5.3 11 19.8 16 25.9 4.2 5.1 4.1 4.8 2 10.4-2.9 7.5-4.6 6.2-7.6-6.1a71.3 71.3 0 00-5.5-15.5c-3.3-5.3-9.2-9.1-14.3-9.1-7.5 0-10.6 5.6-9.7 17.6a37 37 0 007.7 20.6c1.7 2 3 3.9 3 4.1 0 .6-7.1 3.5-11.5 4.7a84.5 84.5 0 01-30-1c-16.9-2.5-23.9-2.5-31.8.1l-6.4 2.1-8.2-2.6c-10.9-3.5-15.2-3.3-32.2 1.3-7.9 2.1-16.1 4.1-18.3 4.4l-3.8.6.6-3.2zm61.1-13.2c4.5-1.8 5.5-4.6 5.5-15.5 0-8.4-.2-9.2-2.8-12.1l-2.7-3.1H211c-28.2-.1-27.4-.2-30.4 2.8-2.5 2.5-2.6 3.2-2.6 12.6 0 16.5.3 16.7 27.8 16.8 15.5 0 21.1-.3 23.7-1.5z"/><path d="M183.1 295.3c-2-1.7-2.2-2.6-1.9-12.3.4-13.8-1-13.1 26.6-12.8 25.6.4 24.2-.4 24.2 13.5s1.1 13.3-25.4 13.3c-18.9 0-21.6-.2-23.5-1.7zM156.5 312.8l-2.4-1.4c-.1-.1.4-1.3 1.3-2.6 2.6-3.6 1.8-4.4-1.3-1.4l-2.9 2.8-8.6-8.8-8.5-8.9 5-5c5.7-5.9 6.7-8.5 1.2-3.4-7.8 7.2-7.8 7.2-10.9 5.6-2.1-1.1-3.8-3.8-7-11.3l-4.2-9.9 6.9-6.7c3.8-3.7 6.9-7.3 6.9-7.9 0-.7-2.9 1.6-6.5 5-3.6 3.5-7.1 6.1-7.8 5.9-.6-.3-4-7.2-7.5-15.4l-6.3-14.9 1.9-4c2.1-4.3 3.7-10.5 2.8-10.5-.4 0-1.8 2.6-3.1 5.7-1.5 3.3-2.9 5.3-3.4 4.7-.5-.5-3-5.8-5.6-11.9-4.5-10.3-7.5-15.4-7.5-12.8 0 .6 1.8 5.1 4.1 10 2.3 4.8 5 10.8 6 13.2l2 4.4-8.1-.6c-4.4-.4-8-.3-8 .2 0 1.2 5.2 2.1 11.6 2.1 3 0 5.4.1 5.4.3l6.5 15.2c3.6 8.1 6.5 15 6.5 15.2 0 1.3-9.9-.6-22.2-4.3-1-.3-1.8-.1-1.8.5 0 1.2 9.1 3.9 18.4 5.5l6.8 1.2 3.9 9.3c3.1 7.4 3.5 9.2 2.2 8.6-2.7-1-17.4-2.7-18.9-2.1-.7.3-1.4-.8-1.8-2.8-.9-4.8-5.9-8.9-16.8-14-7.6-3.5-9.8-5-9.8-6.5 0-2.6.9-3.1 7.1-3.8 3.2-.4 6.1-1.5 7.7-2.8 2.5-2.2 2.5-2.3 1.1-6.1-1.2-3.4-2.4-4.4-8.6-7.4-11.8-5.7-14.4-10-6.9-11.4 5.3-1 9.1-4.6 8.2-7.9-1-4.1-5.9-9-11.5-11.6-4.7-2.3-6.7-4.3-5.6-6.1.2-.4 2.5-1.3 5-2 8.4-2.3 8.4-5.1 0-15-3-3.5-5.5-6.9-5.5-7.6 0-2.8 7.9-3.3 10.2-.6.9.9 2.5 3.5 3.6 5.7a25 25 0 004.1 5.9c2.2 2 2.2 2 7.5-.9 5.5-3 8.6-2.9 8.6.2 0 1-.7 4.3-1.5 7.3s-1.5 7.2-1.5 9.2c0 5.4 3.2 6 10.5 1.9 6.4-3.6 9-3.9 10.5-1.1.9 1.6.4 3.4-2 9.1-4.6 10.5-2.6 14.7 6.6 13.6 6.5-.7 7.4.5 3.6 5-6.8 8-8.4 11-7.3 13.2 1.5 2.7 4.4 3.3 11.1 2.2 9.5-1.5 11 .9 6 9.4-3.5 5.9-3.8 10.4-1 13 1.7 1.5 2.9 1.7 7.7 1 9.9-1.3 12.5-1.1 13.6.7 1.2 1.8.4 3.8-4.8 12.3-2.8 4.5-3.2 8.2-1.1 11 1.1 1.5 2.7 1.9 8.1 1.9 8.5.1 9.4 1.1 7.6 9-1.2 5.4-1.4 5.6-4.4 5.6-1.8 0-4.1-.6-5.2-1.2zM395.5 310.5l-3.7-.9c-2.6-.6-2.8-1-2.8-5.2 0-9.2-5.8-14.2-15.2-13l-5 .7 1.7-2.8c2.9-4.9 3.9-5.8 9.7-9.1l5.6-3.1 5.7 1.4c3.1.8 6.4 1.5 7.3 1.5 3-.1-.8-1.7-5.8-2.5-6.1-1-6.2-1.1-4-4.8 2.2-3.5 2.6-7.8 1.1-10.6-.8-1.4-.2-3 2.4-6.8 2.8-4.2 4.1-5.2 8-6.2 7.7-1.9 12.2-5.4 14.1-10.9l1.7-4.8 6.6 3.4c3.6 1.9 6.9 3.9 7.3 4.5 2.3 3.6-.3 5.2-9.5 6.2-3.8.4-6.6 1.4-8.4 2.9-2.3 2-2.4 2.5-1.3 4.7.7 1.3 2.7 4.1 4.3 6.1 1.7 2.1 2.8 4.1 2.5 4.4-.3.3-4.2 0-8.7-.7-14.3-2.2-16.6 1.2-7.6 10.9 8 8.6 7.4 10.2-3.6 10.2-5 0-6.4.4-8.4 2.5-3.9 3.8-3.2 6 4 12.9 7.7 7.3 8.5 11.3 2 9.1z"/><path d="M376 308a72.7 72.7 0 01-21.3-6.9c-1.7-1.7 14.2-7.1 21.1-7.1 5.4 0 9 2.5 10.2 7.1 2.1 7.7 1.3 8.3-10 6.9zM310 300.3a33.4 33.4 0 01-7.9-21.8c-.1-9.1 1.3-11.9 6.1-12.3 4.8-.4 9.2 2 12.2 6.6a65 65 0 017 21.3c.7 4.6.6 4.7-2.5 5.8-3.7 1.3-4 1.1-6.6-5.9a26 26 0 00-2.6-5.5c-1.4-1.5.2 6.3 2 9.8 1.6 3.1 1.1 4.1-2.4 5.1-1.7.5-2.8-.1-5.3-3.1zM343.3 298.8l-5.2-.9 1.8-4.7 1.9-4.7 8.1-.5 8.1-.5v3.7c0 3.2-.5 3.9-4.4 6.2a47 47 0 01-4.8 2.5l-5.5-1.1zM361.2 289.8c.2-2.8.8-3.4 3.1-3.6 3.2-.4 3.4.6.6 4.2-2.8 3.5-4.1 3.3-3.7-.6zM370.5 285c.3-.5.8-1 1.1-1 .3 0 .2.5-.1 1-.3.6-.8 1-1.1 1-.3 0-.2-.4.1-1zM355.8 278.3c5.5-3.8 9.6-7 9.1-7.1-.6-.2-4.8 1.9-9.5 4.7-4.7 2.8-8.7 5.1-9 5.1-2.7 0 7.4-11.2 13.3-14.6 2.4-1.5 7.1-3.5 10.4-4.5 11.6-3.6 17.9-1.9 17.9 4.8 0 4.7-5.7 10.3-13.3 13.1a94.1 94.1 0 01-24.8 5.2h-4.1l10-6.7zM332.1 275.3c-2.7-3.6-6.8-10.3-9.1-14.9-3.8-7.3-4.2-8.8-3.7-13 .6-5.6 3.3-8.4 7.9-8.4 7.3 0 12.8 12.4 12.7 28.4v9.1l-3.8-10.7c-2.1-6-4.1-11.1-4.4-11.5-1.9-1.9-1.5 1.5 1.2 10.4 3.8 12.7 5 17.3 4.5 17.3-.2 0-2.6-3-5.3-6.7zM343.7 269.5c-.4-2.2-.9-6.8-1.3-10.2l-.6-6.3h6.1c3.4 0 6.1.3 6 .8 0 .4-2.2 5-4.8 10.2l-4.8 9.5-.6-4zM136.7 270.3c-1-.9-.9-6.1.1-6.7.4-.2 1.7 1.3 2.9 3.5l2.1 3.9h-2.2c-1.3 0-2.6-.3-2.9-.7zM350 269.5c0-1 7-14.5 7.5-14.5.3 0 .5 1.9.5 4.3 0 3.9-.4 4.7-4 7.6-2.2 1.7-4 2.9-4 2.6zM141.7 262.5c-1.5-3.2-1.6-4.2-.5-7.1 1.4-4.1.6-6-3.7-8.4-3-1.7-5.5-7.8-5.5-13.8a15 15 0 00-1.4-6c-3.3-6.6-4.2-28.1-3.2-79.7.1-4.7-.2-6-1.4-6-2 0-2.7 8.9-2.9 38.5-.1 21.3.6 33.7 2.5 43.5l.6 3.5h-4.6c-5.7 0-6.5-1.5-4.1-7.3 4.7-11.3 4.8-11.9 2.7-14.6-2.8-3.8-5.9-3.8-12.9 0-7.8 4.2-8.9 3.5-6.8-4.4 1.8-7 1.9-13.9.3-15.5-1.9-1.9-5.5-1.4-9.8 1.4-4.6 3.1-5.9 2.6-9.1-3.8-2.6-5.2-1.9-7.2 5.8-16.5 14.8-17.8 18.6-26 21.7-46.4 1.9-12.9 4.7-19.2 9.4-21.5 3.5-1.6 4.1-1.6 10.2 0a57 57 0 0112.5 5.4c5.2 3.3 6.2 4.4 7.3 8.2.7 2.5 2.2 6.8 3.4 9.5 1.1 2.8 2.3 6.8 2.5 9l.4 4-3-5.1c-3.6-6.2-7.4-9.4-11-9.4-3.2 0-4.4.8-6 3.9-2.9 5.3 5.1 16.3 15.4 21.3 2.7 1.3 4.7 3 5 4.3.8 4.3 1.5 12.5 1 12.5-.2 0-1.8-2.6-3.4-5.7-6.1-12.1-14.9-15.4-18.9-7-3.2 6.6 8.2 20.4 20.1 24.3 3.3 1.1 4.8 2.2 5.2 3.7 3.2 14.4 3.2 14.5-1.2 9.5-5.9-6.5-11.1-9.8-15.3-9.8-4.7 0-8 3-8 7.2 0 3.9 5.7 9.6 12 12l4.5 1.6-4.2-.1c-10.4-.3-13.6 7.2-6.3 15.1l3 3.4-.2 25c-.3 24.9-.3 25-2.1 21.3zM361 257.7v-4.4l11.1-.7c6.1-.4 11.3-.5 11.5-.3 1 1-6.4 5-12.4 6.6-3.7 1-7.5 2.1-8.4 2.6-1.6.6-1.8.1-1.8-3.8zM384.8 258.3c-1-.2-1.8-.6-1.8-.9 0-1.2 6.7-6.3 8.3-6.4 1.7 0 1.7.3-.4 4-2.2 4-2.7 4.2-6.1 3.3z"/><path d="M147 239.5V229h197.8l1.3 3.8a63.8 63.8 0 007.7 15.5c1.4 1.6 1.1 1.7-5.9 1.7h-7.4l-2.2-5c-5.4-12.3-19.9-11.6-21.9 1.1l-.7 3.9H147v-10.5zM370.6 247.2c3.4-1.6 7.9-3.5 10-4.2 5.1-1.6 6.5-3 3.1-3-1.5 0-6.4 1.4-10.8 3.1a31.8 31.8 0 01-8.5 2.6c-1.1-1.1 11.4-11 17.9-14.1 19-9.1 33.8-6.3 29.6 5.7-2.6 7.5-12.9 11.1-35.3 12.2l-12.1.6 6.1-2.9zM121.4 246.9c-.6-1.1 4.3-8 6.2-8.6.6-.2 1.6 1.5 2.3 3.8 1 3.4 1 4.3-.1 5-1.9 1.2-7.6 1.1-8.4-.2zM352.6 241.1a67.2 67.2 0 01-6.5-25.5c.1-10.8 5.4-18.2 11.6-16.1 4.7 1.7 6.5 6.6 6 16-.6 8.9-3.6 23.7-4.7 23-.4-.3-1.1-5.9-1.5-12.5-.4-7.2-1.1-12-1.8-12s-.8 5.2-.4 16c.3 8.8.4 16 .3 16a31 31 0 01-3-4.9zM368.6 234.8a104.8 104.8 0 017-11.6c.3-.7 17.4-.7 17.2 0a34 34 0 01-8 4.2c-4.3 1.9-10 5-12.8 7l-5.1 3.7 1.7-3.3zM364.4 232.1c.9-4.8 10.6-20.5 12-19.1 1.1 1.1.3 2.7-7.7 15-4.2 6.5-4.8 7.1-4.3 4.1z"/><path d="M412.1 226.6c-1-1.1-1-2-.1-3.6.6-1.2.9-2.4.7-2.7-.3-.2-1 .4-1.6 1.5-.9 1.7-2 2-8.2 1.9-6.1-.1-6.8-.3-5.3-1.4 1-.7 2.8-1.3 4-1.3a53 53 0 0018.5-6.4l3.7-2.5 5.2 2.5c3.7 1.8 5 2.9 4.6 4l-.6 1.9c0 .2-2.9 1.3-6.5 2.4a67.3 67.3 0 00-9.4 3.6c-3.7 1.8-3.6 1.8-5 .1zM147.2 216.7c.3-7.7.8-9.9 2.7-12.5 4.5-6.4 5.8-6.7 35.3-7l26.7-.3 5.3 4.2a56.8 56.8 0 0070 .3l5.8-4.5 26.9.3c14.8.2 27.3.6 27.7 1.1.4.4-.3 2.6-1.7 5-2.1 3.6-2.4 5.5-2.4 13.5l.1 9.2H146.8l.4-9.3z"/><path d="M394.3 214.8a48.9 48.9 0 0010.7-6c0-.4-3 .4-6.7 1.8l-10.8 4-4 1.4 5.8-5.4c8-7.4 16.8-12 23.2-12 6.4-.1 10.5 2.3 10.5 6.2 0 8-11.1 13-32.5 14.6l-7 .6 10.8-5.2zM367 213.5c-.1-7-2.7-13.7-6.2-15.6-1.2-.8-4.3-1.4-6.8-1.5-5.3-.2-13-1.5-13-2.1a84.7 84.7 0 008-15.2c5.7-13.6 8.6-16.7 17.5-19a54.7 54.7 0 0021.1-10.2 70.2 70.2 0 0121.1-10.5c4.1-.8 9.1 3.6 9.9 8.7.6 3.3.4 3.7-2 4.3-6.5 1.6-13.1 11.9-18.5 28.9a48.8 48.8 0 01-6.3 13.8 16.3 16.3 0 01-3.4 3.6c-.9-.9 3-13.6 6.5-20.8a62 62 0 004.1-10.3c0-3.6-2.3-1.2-5.2 5.4l-3.1 7.1-1.6-4.8c-1.3-3.7-2.4-5.2-5.3-6.8-3.5-1.8-3.8-1.9-7.2-.3a15 15 0 00-5.3 5c-3.1 5.8-2 24 2 33.8.4.9-.8 3.9-2.8 7l-3.5 5.5v-6zM142 209.7c-3.7-5.5-2.9-8.2 2.8-9.3 3.3-.7 4.4 1 2.2 3.2-.5.5-1.5 2.6-2.2 4.7-1.3 3.7-1.3 3.7-2.8 1.4zM243 209.9a66.3 66.3 0 01-28.2-14.6 53.6 53.6 0 01-15.8-38.2c0-9.9 1.9-18.2 5.8-25.5a71 71 0 0123.4-22.9 53.9 53.9 0 1139.5 99.8c-6.5 1.9-18 2.6-24.7 1.4zm23.7-47.1c13.9-14.1 21.4-22.3 21.9-24.1.9-4-2.2-8.1-6.6-8.5-3-.3-4.5.9-21.6 17.9L242 166.4l-6.9-6.8c-5.6-5.5-7.6-6.9-10-6.9-4.3 0-7.1 2.8-7.1 7.2 0 3.2 1.1 4.6 10.4 13.8 9 8.9 10.8 10.3 13.7 10.3 3 0 5.4-2.1 24.6-21.2z"/><path d="M376.9 206.5c-4.7-8.4-6.4-24-3.5-31 3.6-8.6 12.1-6.7 13.6 3.1.9 5.8-.3 15.6-2.6 21.4-2 4.9-3.4 3.8-3.4-2.7 0-7.8-1.9-4.4-2.2 4l-.3 8.2-1.6-3zM386 208.3a57 57 0 015.8-8.1c5-6.4 6.7-7.7 14-11.2l8.2-3.9v4.2c0 4.7-1.3 6.7-4.5 6.7-3 0-12.3 4.6-18.2 9.1-2.9 2.2-5.3 3.6-5.3 3.2zM420.3 197.1c-1.8-.9-3.3-2.1-3.3-2.6 0-3.2 6.3-4.8 7.4-1.9.8 2.2.7 6.4-.1 6.3-.5-.1-2.3-.9-4-1.8zM146.3 192.4c-7.4-3.5-9-5.6-8.1-10.1.4-2.4 5.7-2.9 9.6-.9 3.6 1.9 12.6 10.5 11.8 11.3-.3.3-2.9-.8-5.7-2.5-6.8-4.3-7.6-4.1-1.1.3 9.4 6.4 5.1 7.6-6.5 1.9zM168.3 193.5c.4-.9 1-2.9 1.3-4.3.4-2 0-1.7-1.5 1.3l-2.1 4 .4-6.1c.4-7 3-12.5 7.9-17.2 4-3.9 6.7-3.9 8.1 0 1.3 3.7-1.3 10-7.2 17.3-4.8 5.9-8.1 8.4-6.9 5zM175.1 193.2l4.4-6c3.5-4.8 4.5-5.2 4.5-1.6 0 3.5-4.9 9.4-7.9 9.4-2.1 0-2.2-.2-1-1.8zM183.6 192.8c3.2-3.9 5.8-5.8 8.1-5.8s7.7 5.6 6.7 7.1c-.3.5-4.2.9-8.6.9h-8.1l1.9-2.2z"/><path d="M201 192c-2-4.9-6.8-8.3-10.7-7.7-3 .5-3.3.3-4.1-2.6-.5-1.8-.7-5-.4-7.2.3-3.3-.1-4.5-2.3-6.9-2.1-2.2-3.2-2.7-5.4-2.3-1.6.3-3.1.3-3.4 0-.4-.3 1.3-2.9 3.7-5.7 5.5-6.5 6.6-8.6 6.6-13.1 0-2.5-.8-4.3-2.5-6-2.8-2.9-4.5-3.1-8.7-.9l-3.1 1.6 2.9-4.1 2.9-4.1 11.5.6 11.6.8c.1 0-.6 3.3-1.6 7.1a66.2 66.2 0 00-.5 29c1.8 6.6 6.3 16 10.2 21.1l2.5 3.4h-4c-3.5 0-4.1-.4-5.2-3zM296.5 194c-.2-.4 1.4-3.3 3.6-6.6 6-9 8.4-17.7 8.4-30.9a46 46 0 00-7-27.9 21.6 21.6 0 01-3.1-6.3c.7-.7 11.4 3.8 15.4 6.5S337 148 337 148.7c0 .2-1.3-.3-3-1.2-4.1-2.1-5.9-1.9-7.2 1-1 2.1-.7 3.2 2 7.6 3 4.7 4.1 8.9 2.4 8.9-.4 0-2.5-.9-4.6-2.1-4.3-2.3-8.4-2.2-9.9.3-.8 1.2-.2 3 3 8 2.3 3.4 4.4 7.3 4.8 8.6.9 3-1.5 3.8-5.5 1.7-3.9-2-7.4-1.6-7.8.8-.2 1.1 1 4.1 2.7 6.9a53 53 0 013.1 5.3c0 .6-20.1.1-20.5-.5z"/><path d="M317.5 189.4c-4.1-6.1-3.9-7.7.4-5.1 6.9 4.1 11.7.5 8.7-6.6-.8-2-2.9-5.7-4.5-8.1a35.4 35.4 0 01-3.1-5c0-1.1 2.8-.6 7.4 1.4 8.5 3.8 11.4-1.3 5.6-10-4.6-6.9-3.9-8.5 2.2-5.4 2.4 1.2 3.6 1.3 5.4.5 3.1-1.4 3.3-7.2.3-12-2.4-3.9-1.9-4.9 1.6-3.3 3.4 1.5 6.2 1.5 7.2 0 .4-.7 1-3.3 1.3-5.8.4-3.7.9-4.6 2.8-4.8 2.1-.3 2.2 0 2.1 5.3-.2 6.4.4 7.1 6.4 8.1 2 .4 4 1 4.2 1.4.3.4-2 2.4-5 4.4-3 2-5.5 4.3-5.5 5.2 0 1.7 5.6 4.4 9.2 4.4 2.8 0 5.5 1.6 4.5 2.6-.4.4-3.8 1.3-7.5 2-3.7.6-7.9 1.5-9.4 1.9l-2.7.7 1.5-6.4 2.1-8.8c.4-1.7.2-2.2-.5-1.5a44 44 0 00-3.1 8.4c-1.1 4-2.2 7.6-2.5 7.8-.3.3-2.3-1-4.5-2.8-2.3-1.8-4.4-3-4.7-2.6-.3.3 1.6 2.2 4.4 4.2l4.9 3.7-2.5 9.1c-1.4 5.1-2.7 9.4-2.9 9.6-.2.3-3-2.2-6.3-5.4-3.3-3.3-6-5.5-6-5s2.7 3.7 6 7c6 6 6 6.1 4.9 9.5-1.6 4.8-3.8 7-6.8 7-2.6 0-6.9-2.3-8.3-4.4-.4-.6-1-.7-1.4-.3-.4.4-.2 1.3.4 1.9 1.7 1.7 1.5 2.8-.7 2.8-1.2 0-3.3-2.1-5.6-5.6zM402 187.5c0-.4 3.7-4.9 8.1-10.1 4.5-5.2 7.9-9.8 7.5-10.1-.3-.4-4.2 3.1-8.6 7.7-4.4 4.6-8 7.8-8 7.1 0-2.6 6.2-17 9-20.8 3.9-5.2 9.3-7.6 14.4-6.2 4.1 1.1 5.2 3.7 4.1 9.6-.9 4.9-11.8 15.7-20.2 20.1a23 23 0 01-6.3 2.7zM162.2 181.5c-1.3-6-1-6.6 4.4-11 5.5-4.6 7.4-3.7 3.3 1.5-1.8 2.2-4 6.3-4.9 9.1l-1.8 5.2-1-4.8z"/><path d="M344.3 180l2.3-8.8c1.7-6.7 2.2-7.5 5.3-8.8 4.4-1.8 4.7-1.8 2.6.6-.9 1-3.7 5.6-6.2 10.2a34.1 34.1 0 01-4 6.8zM148.5 167.6c-6.3-4.2-9-7.2-10.9-11.7-1.4-3.5-1.2-7.9.4-7.9.5 0 1.5-.3 2.3-.6 2.3-.8 8 4.9 11.5 11.5 4.6 8.4 3.9 9.4-1.9 3.1-4-4.3-4.4-4.6-1.7-1.2l5.7 7.3c3.2 4 .9 3.8-5.4-.5zM79.6 166c-4.3-10.4-2.8-17.9 4.9-25.5 4.8-4.6 18.7-12.6 20-11.4A63 63 0 0199 146c-2 3.8-8.9 13.2-14.4 19.5l-3.5 4-1.5-3.5zM164 168.4c0-.4 1.4-3.2 3.1-6.3 3.7-6.6 1.9-5.3-2.3 1.6l-3 4.8.6-5.2C164 147.4 182 132.5 182 147c0 2.9-.9 5-3.9 8.7-3.8 4.9-14.1 14.1-14.1 12.7zM158.7 161.6c-1.1-2.8-.8-10.4.4-11.2 2.4-1.5 3.1 1.4 1.7 7.2-1 4-1.7 5.2-2.1 4zM371 154.2c0-1.3-4.7-3.2-7.8-3.2-5.2 0-5.6-1.5-1.3-4.3 3.9-2.6 4.7-2.7 16.8-2.7h12.8l-8.4 5.5c-7.7 5.1-12.1 6.7-12.1 4.7zM161 145.7c0-.4.9-2.6 2-4.7 1.1-2.2 1.8-4 1.5-4-.2 0-1.4 1.9-2.6 4.3-3 5.8-3.5 3.1-1-5.3 3.1-10.1 8.9-16.1 12.6-13 2.3 1.9 1.8 6.2-1.4 11.1-2.8 4.4-11.1 13-11.1 11.6zM147.4 140.1c-10.1-7.4-13.8-17.1-6.4-17.1 5 0 12 10.3 12 17.9 0 2.8-.9 2.7-5.6-.8zM368.3 139.5c-.3-.9-1.8-2.2-3.4-3.1-2.7-1.3-2.9-1.9-2.9-6.9 0-6.2 2.7-10.3 5.8-9 4.5 1.9 5.1 1.7 6.5-1.7 1.6-3.9 7-8.8 9.7-8.8.9 0 2.3.7 3 1.5 1.6 2 2.7 1.9 5.7-.5 2.9-2.3 7.5-2.6 9.1-.7.6.7 1.4 3.2 1.8 5.5.7 4.5 1.1 4.8 4.8 3.1 5.2-2.4 10 1.5 9.8 8.1-.1 2.5.3 3 2.2 3 4.5 0 8.6 2.1 9.3 4.8.9 3.9-.8 5.7-6.1 6-3.5.2-5.3-.2-7.3-1.7-3.3-2.7-8.7-2.7-15.3-.1-6.7 2.7-31.7 3-32.7.5zM156.9 136c-.4-5.2.1-9.4 1.1-10.4 1.7-1.7 2.1 4.1.6 9l-1.5 4.9-.2-3.5z"/><path d="M181.8 130.3c-3.6-.4-3.8-.6-3.8-3.8 0-1.8-.7-4.1-1.6-4.9-2.4-2.5-7.8-2-11.3 1-2.6 2.2-3.2 2.3-3.7 1-.3-.9-.3-2.7 0-4.1l.6-2.5h50.2l-2.9 3.3c-1.6 1.8-3.9 5-5.2 7l-2.3 3.7-8.1-.2c-4.5-.1-9.9-.3-11.9-.5zM155.9 119l-.1-3.5-.7 3c-.6 2.8-.7 2.6-2.4-2.6-2.4-7.7-2.3-14.3.3-16.9 2.6-2.6 5.6-2.5 7.1.1 2.3 4.4.8 17-2.5 21.4-1.5 1.9-1.5 1.8-1.7-1.5zM102.1 112.1c-4.2-4.2-1.2-11.2 5.7-13.1 5.7-1.5 6.8-1.4 4.9.8-.8.9-2.4 4.4-3.5 7.7-2.2 6.6-4 7.7-7.1 4.6z"/><path d="M163.8 107.7c.5-7.6-1.4-12.3-5.4-13.3-4.3-1.1-7.8 1.8-11 9.4-.1.2-2.8-1.3-6-3.2a56 56 0 00-12.6-5.3c-7.4-1.9-8.1-2.9-5.4-8.2 2.4-4.5 6.3-6.5 12.6-6.5 3 .1 6.6.6 7.8 1.3 3.4 1.8 5.2.7 5.2-3.1a11 11 0 017.9-10.8c4.8-1.3 12 .1 16.2 3 3.4 2.5 4.1 2.5 8.1 0 1.8-1.1 4.7-2 6.3-2 7 0 18 7.9 20.6 14.7.7 2 1.4 2.4 3.2 1.8a66 66 0 016.7-1.2c3.9-.4 5-.1 7.8 2.2 3.7 3.1 5.6 8.9 4.6 14-.5 2.9-1.8 4.2-8 8.5l-7.5 5h-51.5l.4-6.3zM273.3 104.1c-5.2-2.1-5.6-2.5-4.8-5 .9-2.8 5-4.8 11.4-5.7 4.9-.6 5.2-.8 4.6-3.1-1.6-6.3 3.3-9.3 15.2-9.3 6.7 0 8.3-.3 9.8-2 5.4-6 19.7-3.4 22 4 .4 1.4 2 1.9 6.9 2.2 5 .3 7.1 1 10 3.2 4.8 3.6 8.5 9.3 8.8 13.6l.3 3.5-40 .2c-35.3.1-40.5-.1-44.2-1.6z"/></g></svg>